<svg xmlns="http://www.w3.org/2000/svg" xmlns:xlink="http://www.w3.org/1999/xlink" width="48" height="48">
 <defs>
  <linearGradient id="b">
   <stop offset="0" stop-color="#fff"/>
   <stop offset="1" stop-color="#fff" stop-opacity="0"/>
  </linearGradient>
  <linearGradient id="a">
   <stop offset="0" stop-color="#c4a000"/>
   <stop offset="1" stop-color="#c4a000" stop-opacity="0"/>
  </linearGradient>
  <linearGradient xlink:href="#a" id="d" x1="20.738" y1="17.253" x2="16.659" y2="17.253" gradientUnits="userSpaceOnUse" gradientTransform="matrix(2.3 0 0 2.375 -1.95 -3.562)"/>
  <linearGradient xlink:href="#a" id="e" gradientUnits="userSpaceOnUse" gradientTransform="matrix(-2.3 0 0 2.375 73.95 -3.562)" x1="20.738" y1="17.253" x2="18.975" y2="17.253"/>
  <radialGradient xlink:href="#b" id="c" cx="36.147" cy="15.981" fx="36.147" fy="15.981" r="9.464" gradientTransform="matrix(.99484 0 0 .7639 .187 3.763)" gradientUnits="userSpaceOnUse"/>
 </defs>
 <path style="line-height:normal;font-variant-ligatures:normal;font-variant-position:normal;font-variant-caps:normal;font-variant-numeric:normal;font-variant-alternates:normal;font-feature-settings:normal;text-indent:0;text-align:start;text-decoration-line:none;text-decoration-style:solid;text-decoration-color:#000;text-transform:none;text-orientation:mixed;white-space:normal;shape-padding:0;isolation:auto;mix-blend-mode:normal;solid-color:#000;solid-opacity:1" d="M36 13.531c-5.207 0-9.465 4.269-9.464 9.48v7.593a1.883 1.883 0 0 0 1.883 1.884h15.162a1.883 1.883 0 0 0 1.883-1.884V23.01c.001-5.21-4.257-9.479-9.464-9.479zm0 3.767a5.676 5.676 0 0 1 5.698 5.712v5.711H30.302v-5.71A5.676 5.676 0 0 1 36 17.297z" color="#000" font-weight="400" font-family="sans-serif" overflow="visible" fill="#888a85" stroke="#555753" stroke-linecap="square" stroke-linejoin="round"/>
 <path style="line-height:normal;font-variant-ligatures:normal;font-variant-position:normal;font-variant-caps:normal;font-variant-numeric:normal;font-variant-alternates:normal;font-feature-settings:normal;text-indent:0;text-align:start;text-decoration-line:none;text-decoration-style:solid;text-decoration-color:#000;text-transform:none;text-orientation:mixed;white-space:normal;shape-padding:0;isolation:auto;mix-blend-mode:normal;solid-color:#000;solid-opacity:1" d="M36 13.96c-4.97 0-9.036 4.078-9.035 9.05v6.85c0 1.208.989 2.197 2.197 2.197h13.676c1.208 0 2.197-.99 2.197-2.198v-6.85c.001-4.971-4.066-9.048-9.035-9.048zm0 1c4.423 0 8.036 3.623 8.035 8.05v6.85a1.19 1.19 0 0 1-1.197 1.197H29.162a1.19 1.19 0 0 1-1.197-1.198v-6.85c-.001-4.426 3.612-8.048 8.035-8.048z" color="#000" font-weight="400" font-family="sans-serif" overflow="visible" opacity=".5" fill="#fff"/>
 <path d="M36 13.531c-5.207 0-9.465 4.269-9.464 9.48v7.593a1.883 1.883 0 0 0 1.883 1.884h15.162a1.883 1.883 0 0 0 1.883-1.884V23.01c.001-5.21-4.257-9.479-9.464-9.479zm0 3.767a5.676 5.676 0 0 1 5.698 5.712v5.711H30.302v-5.71A5.676 5.676 0 0 1 36 17.297z" style="line-height:normal;font-variant-ligatures:normal;font-variant-position:normal;font-variant-caps:normal;font-variant-numeric:normal;font-variant-alternates:normal;font-feature-settings:normal;text-indent:0;text-align:start;text-decoration-line:none;text-decoration-style:solid;text-decoration-color:#000;text-transform:none;text-orientation:mixed;white-space:normal;shape-padding:0;isolation:auto;mix-blend-mode:normal;solid-color:#000;solid-opacity:1" color="#000" font-weight="400" font-family="sans-serif" overflow="visible" fill="url(#c)"/>
 <path d="M36 13.531c-5.207 0-9.465 4.269-9.464 9.48v7.593a1.883 1.883 0 0 0 1.883 1.884h15.162a1.883 1.883 0 0 0 1.883-1.884V23.01c.001-5.21-4.257-9.479-9.464-9.479zm0 3.767a5.676 5.676 0 0 1 5.698 5.712v5.711H30.302v-5.71A5.676 5.676 0 0 1 36 17.297z" style="line-height:normal;font-variant-ligatures:normal;font-variant-position:normal;font-variant-caps:normal;font-variant-numeric:normal;font-variant-alternates:normal;font-feature-settings:normal;text-indent:0;text-align:start;text-decoration-line:none;text-decoration-style:solid;text-decoration-color:#000;text-transform:none;text-orientation:mixed;white-space:normal;shape-padding:0;isolation:auto;mix-blend-mode:normal;solid-color:#000;solid-opacity:1" color="#000" font-weight="400" font-family="sans-serif" overflow="visible" fill="none" stroke="#555753" stroke-linecap="square" stroke-linejoin="round"/>
 <path d="M24.5 28.5h23v19h-23z" fill="#edd400" stroke="#c4a000" stroke-linecap="square" stroke-linejoin="round"/>
 <path d="M24.5 28.5h23v19h-23z" fill="url(#d)" stroke="#c4a000" stroke-linecap="square" stroke-linejoin="round"/>
 <path d="M47.5 28.5h-23v19h23z" fill="url(#e)" stroke="#c4a000" stroke-linecap="square" stroke-linejoin="round"/>
 <rect width="20.969" height="17.009" x="25.49" y="29.5" opacity=".75" fill="none" stroke="#fff"/>
</svg>
