<svg xmlns="http://www.w3.org/2000/svg" xmlns:xlink="http://www.w3.org/1999/xlink" width="48" height="48">
 <defs>
  <linearGradient id="f">
   <stop offset="0" stop-color="#c4d7eb"/>
   <stop offset="1" stop-color="#c4d7eb" stop-opacity="0"/>
  </linearGradient>
  <linearGradient id="e">
   <stop offset="0" stop-color="#3977c3"/>
   <stop offset="1" stop-color="#89aedc" stop-opacity="0"/>
  </linearGradient>
  <linearGradient id="i">
   <stop offset="0" stop-color="#729fcf"/>
   <stop offset="1" stop-color="#528ac5"/>
  </linearGradient>
  <linearGradient id="g">
   <stop offset="0" stop-color="#b9cfe7"/>
   <stop offset="1" stop-color="#729fcf"/>
  </linearGradient>
  <linearGradient id="h">
   <stop offset="0" stop-color="#3465a4"/>
   <stop offset="1" stop-color="#3465a4"/>
  </linearGradient>
  <linearGradient id="b">
   <stop offset="0" stop-color="#3465a4"/>
   <stop offset="1" stop-color="#3465a4" stop-opacity="0"/>
  </linearGradient>
  <linearGradient id="a">
   <stop offset="0" stop-color="#3465a4"/>
   <stop offset=".333" stop-color="#5b86be"/>
   <stop offset="1" stop-color="#83a8d8" stop-opacity="0"/>
  </linearGradient>
  <linearGradient id="c">
   <stop offset="0" stop-color="#fff"/>
   <stop offset="1" stop-color="#fff" stop-opacity="0"/>
  </linearGradient>
  <linearGradient id="d">
   <stop offset="0"/>
   <stop offset="1" stop-opacity="0"/>
  </linearGradient>
  <linearGradient xlink:href="#a" id="k" gradientUnits="userSpaceOnUse" gradientTransform="matrix(.51488 0 0 .50937 23.804 23.414)" x1="13.479" y1="10.612" x2="15.419" y2="19.115"/>
  <linearGradient xlink:href="#b" id="l" gradientUnits="userSpaceOnUse" gradientTransform="matrix(-.51488 0 0 -.50937 48.036 46.91)" x1="37.128" y1="29.73" x2="37.065" y2="26.194"/>
  <linearGradient xlink:href="#c" id="t" gradientUnits="userSpaceOnUse" x1="5.965" y1="26.048" x2="52.854" y2="26.048" gradientTransform="matrix(-.26183 -.21885 -.22122 .25903 50.878 30.364)"/>
  <linearGradient xlink:href="#c" id="s" gradientUnits="userSpaceOnUse" x1="5.965" y1="26.048" x2="52.854" y2="26.048" gradientTransform="matrix(.26183 .21885 .22122 -.25903 21.49 39.66)"/>
  <radialGradient xlink:href="#d" id="j" gradientUnits="userSpaceOnUse" gradientTransform="matrix(.76703 0 0 .27373 -55.05 -53.687)" cx="24.837" cy="36.421" fx="24.837" fy="36.421" r="15.645"/>
  <linearGradient xlink:href="#e" id="p" x1="36.714" y1="31.456" x2="37.124" y2="24.842" gradientUnits="userSpaceOnUse" gradientTransform="matrix(.51488 0 0 .50937 23.536 24.104)"/>
  <linearGradient xlink:href="#f" id="o" x1="32.648" y1="30.749" x2="37.124" y2="24.842" gradientUnits="userSpaceOnUse" gradientTransform="matrix(.51488 0 0 .50937 23.536 24.104)"/>
  <linearGradient xlink:href="#g" id="m" gradientUnits="userSpaceOnUse" x1="62.514" y1="36.061" x2="15.985" y2="20.609" gradientTransform="matrix(-.29814 -.2492 -.2519 .29495 52.87 30.367)"/>
  <linearGradient xlink:href="#h" id="n" gradientUnits="userSpaceOnUse" x1="46.835" y1="45.264" x2="45.38" y2="50.94" gradientTransform="matrix(-.29814 -.2492 -.2519 .29495 52.87 30.367)"/>
  <linearGradient xlink:href="#i" id="q" gradientUnits="userSpaceOnUse" x1="18.936" y1="23.668" x2="53.589" y2="26.649" gradientTransform="matrix(.29814 .2492 .2519 -.29495 19.458 39.658)"/>
  <linearGradient xlink:href="#h" id="r" gradientUnits="userSpaceOnUse" x1="46.835" y1="45.264" x2="45.38" y2="50.94" gradientTransform="matrix(.29814 .2492 .2519 -.29495 19.458 39.658)"/>
 </defs>
 <g color="#000">
  <ellipse ry="4.283" rx="12" cy="-43.717" cx="-36" transform="scale(-1)" style="marker:none" overflow="visible" opacity=".383" fill="url(#j)" fill-rule="evenodd"/>
  <path style="marker:none" d="M33.94 28.858s-4.6-.318-3.185 5.03h-3.958s.257-6.048 7.144-5.03z" display="block" overflow="visible" fill="url(#k)" stroke="url(#l)"/>
  <path style="marker:none" d="M27.007 34.14c-1.89-8.863 7.677-12.194 16.017-5.685l2.458-2.67-.049 8.727-7.703-.007 2.564-2.852c-5.866-4.398-13.378-4.069-13.287 2.488z" display="block" overflow="visible" fill="url(#m)" stroke="url(#n)"/>
  <path d="M38.146 41.136s4.601.318 3.185-5.03h4.004c0 .765-.303 6.049-7.19 5.03z" style="marker:none" display="block" overflow="visible" fill="url(#o)" stroke="url(#p)"/>
  <path d="M45.32 35.884c1.89 8.864-7.677 12.195-16.017 5.685l-2.394 2.766.017-8.759 7.543-.056-2.436 2.852c5.866 4.398 13.378 4.069 13.287-2.488z" style="marker:none" display="block" overflow="visible" fill="url(#q)" stroke="url(#r)"/>
  <path style="marker:none" d="M27.402 43.01l.032-7.031 5.858.124-2.013 2.301 2.06 1.431c-1.545 1.146-2.084.861-2.6 2.166l-1.478-1.132z" overflow="visible" opacity=".272" fill="#fff"/>
  <path style="marker:none" d="M45.03 38.941c-.978 5.938-8.688 7.134-15.852 1.258l-1.272 1.425.052-5.159 4.467.053-1.834 1.972c6.634 5.156 12.139 5 14.44.451z" display="block" overflow="visible" opacity=".5" fill="none" stroke="url(#s)"/>
  <path d="M27.072 31.96c.98-5.938 8.622-8.4 16.026-2.12l1.332-1.427.013 5.1-4.467.001 1.795-1.925c-4.862-3.894-11.381-5.816-13.747-1.458z" style="marker:none" display="block" overflow="visible" opacity=".5" fill="none" stroke="url(#t)"/>
  <path style="marker:none" d="M27.416 30.612c3.142-3.999 8.209-2.04 10.136-1.202 2.15.108 2.693-1.042 4.405-1.126-7.12-4.729-13.343-2.996-14.54 2.328z" overflow="visible" opacity=".272" fill="#fff"/>
 </g>
</svg>
