<svg xmlns="http://www.w3.org/2000/svg" xmlns:xlink="http://www.w3.org/1999/xlink" width="48" height="48">
 <defs>
  <linearGradient id="d">
   <stop offset="0" stop-color="#fffeff" stop-opacity=".333"/>
   <stop offset="1" stop-color="#fffeff" stop-opacity=".216"/>
  </linearGradient>
  <linearGradient id="b">
   <stop offset="0" stop-color="#a40000"/>
   <stop offset="1" stop-color="#ff1717"/>
  </linearGradient>
  <linearGradient id="c">
   <stop offset="0" stop-color="#ffe69b"/>
   <stop offset="1" stop-color="#fff"/>
  </linearGradient>
  <linearGradient id="a">
   <stop offset="0"/>
   <stop offset="1" stop-opacity="0"/>
  </linearGradient>
  <radialGradient xlink:href="#a" id="e" gradientUnits="userSpaceOnUse" gradientTransform="matrix(1 0 0 .5 0 20)" cx="23.857" cy="40" fx="23.857" fy="40" r="17.143"/>
  <linearGradient xlink:href="#b" id="f" gradientUnits="userSpaceOnUse" x1="36.918" y1="66.288" x2="19.071" y2="5.541"/>
  <linearGradient xlink:href="#c" id="g" gradientUnits="userSpaceOnUse" x1="43.936" y1="53.836" x2="20.065" y2="-8.563"/>
  <linearGradient xlink:href="#d" id="h" gradientUnits="userSpaceOnUse" x1="21.994" y1="33.955" x2="20.917" y2="15.815"/>
 </defs>
 <path transform="matrix(1.07055 0 0 .525 -.893 22.5)" d="M41 40a17.143 8.571 0 1 1-34.286 0A17.143 8.571 0 1 1 41 40z" style="marker:none" opacity=".6" color="#000" fill="url(#e)" display="block" overflow="visible"/>
 <path transform="translate(2.369 .974) scale(.92049)" d="M46.857 23.929a23.357 23.357 0 1 1-46.714 0 23.357 23.357 0 1 1 46.714 0z" fill="url(#f)" stroke="#b20000" stroke-width="1.086"/>
 <path transform="translate(1.818 .198) scale(.8561)" d="M49.902 26.635a23.991 23.991 0 1 1-47.983 0 23.991 23.991 0 1 1 47.983 0z" opacity=".347" fill="none" stroke="url(#g)" stroke-width="1.168"/>
 <rect width="27.836" height="7.174" x="10.079" y="19.165" transform="matrix(1.00588 0 0 1.1152 -.138 -2.373)" fill="#efefef"/>
 <path transform="translate(-.072 .02) scale(1.003)" d="M43.37 21.715c0 10.831-10.354-6.266-18.674.387-8.126 6.497-20.597 12.19-20.597 1.36 0-11.084 8.695-21.367 19.526-21.367 10.83 0 19.746 8.79 19.746 19.62z" fill="url(#h)"/>
</svg>
