<svg xmlns="http://www.w3.org/2000/svg" xmlns:xlink="http://www.w3.org/1999/xlink" width="48" height="48">
 <defs>
  <linearGradient id="c">
   <stop offset="0" stop-color="#fffeff" stop-opacity=".333"/>
   <stop offset="1" stop-color="#fffeff" stop-opacity=".216"/>
  </linearGradient>
  <linearGradient id="b">
   <stop offset="0" stop-color="#ffe69b"/>
   <stop offset="1" stop-color="#fff"/>
  </linearGradient>
  <linearGradient id="a">
   <stop offset="0"/>
   <stop offset="1" stop-opacity="0"/>
  </linearGradient>
  <radialGradient xlink:href="#a" id="d" gradientUnits="userSpaceOnUse" gradientTransform="matrix(1 0 0 .5 0 20)" cx="23.857" cy="40" fx="23.857" fy="40" r="17.143"/>
  <linearGradient xlink:href="#b" id="e" gradientUnits="userSpaceOnUse" x1="43.936" y1="53.836" x2="20.065" y2="-8.563"/>
  <linearGradient xlink:href="#c" id="f" gradientUnits="userSpaceOnUse" x1="21.994" y1="33.955" x2="20.917" y2="15.815"/>
 </defs>
 <path transform="matrix(1.07055 0 0 .525 -.893 22.5)" d="M41 40a17.143 8.571 0 1 1-34.286 0A17.143 8.571 0 1 1 41 40z" style="marker:none" opacity=".6" color="#000" fill="url(#d)" display="block" overflow="visible"/>
 <path d="M45.5 23a21.5 21.5 0 1 1-43 0 21.5 21.5 0 1 1 43 0z" fill="#f57900" stroke="#ce5c00" stroke-opacity=".973"/>
 <path d="M24 35.046c-1.721 0-3.046-1.325-3.046-3.046 0-1.855 1.192-3.046 3.046-3.046 1.854 0 2.914 1.19 3.046 3.046 0 1.721-1.192 3.046-3.046 3.046zm-1.854-7.814L21.351 12h5.298l-.795 15.232h-3.84z" fill="#fff"/>
 <path transform="translate(1.818 .198) scale(.8561)" d="M49.902 26.635a23.991 23.991 0 1 1-47.983 0 23.991 23.991 0 1 1 47.983 0z" opacity=".347" fill="none" stroke="url(#e)" stroke-width="1.168"/>
 <path transform="translate(-.072 .02) scale(1.003)" d="M43.37 21.715c0 10.831-10.354-6.266-18.674.387-8.126 6.497-20.597 12.19-20.597 1.36 0-11.084 8.695-21.367 19.526-21.367 10.83 0 19.746 8.79 19.746 19.62z" fill="url(#f)"/>
</svg>
