<svg xmlns="http://www.w3.org/2000/svg" xmlns:xlink="http://www.w3.org/1999/xlink" height="48" width="48">
 <defs>
  <linearGradient id="b">
   <stop offset="0" stop-color="#fff"/>
   <stop offset="1" stop-color="#f6e76a"/>
  </linearGradient>
  <linearGradient id="a">
   <stop offset="0" stop-color="#fff"/>
   <stop offset=".5" stop-color="#fefc9a" stop-opacity=".629"/>
   <stop offset="1" stop-color="#fefc9a" stop-opacity="0"/>
  </linearGradient>
  <radialGradient xlink:href="#a" id="f" gradientUnits="userSpaceOnUse" gradientTransform="matrix(1 0 0 .16667 0 8.71)" cx="25.128" cy="10.452" fx="25.128" fy="10.452" r="15.077"/>
  <radialGradient r="8.902" fy="15.756" fx="29.158" cy="15.721" cx="29.288" gradientUnits="userSpaceOnUse" id="e" xlink:href="#b"/>
  <radialGradient gradientTransform="matrix(1.25 0 0 1.25 -6.48 -13.372)" id="g" cx="25.053" cy="39.593" r="15.757" fx="25.053" fy="39.593" gradientUnits="userSpaceOnUse">
   <stop offset="0" stop-color="#777"/>
   <stop offset="1"/>
  </radialGradient>
  <linearGradient id="c">
   <stop offset="0"/>
   <stop offset="1" stop-opacity="0"/>
  </linearGradient>
  <radialGradient gradientUnits="userSpaceOnUse" gradientTransform="matrix(1 0 0 .33333 0 25.714)" r="19.714" fy="38.571" fx="24.714" cy="38.571" cx="24.714" id="d" xlink:href="#c"/>
 </defs>
 <path d="M44.429 38.571a19.714 6.571 0 1 1-39.429 0 19.714 6.571 0 1 1 39.429 0z" style="marker:none" opacity=".532" color="#000" fill="url(#d)" fill-rule="evenodd" overflow="visible"/>
 <path transform="translate(-40.547 -16.492) scale(2.08314)" d="M39.775 19.009a8.662 8.662 0 1 1-17.324 0 8.662 8.662 0 1 1 17.324 0z" style="marker:none" overflow="visible" stroke-linejoin="round" stroke-linecap="round" stroke-width=".48" stroke="#e49a17" fill-rule="evenodd" fill="url(#e)" color="#000"/>
 <path transform="matrix(1.1758 0 0 2.58223 -5.28 -20.478)" d="M40.204 10.452a15.077 2.513 0 1 1-30.153 0 15.077 2.513 0 1 1 30.153 0z" style="marker:none" color="#000" fill="url(#f)" overflow="visible"/>
 <path style="marker:none" d="M41.414 23.105a17.149 17.149 0 1 1-34.298 0 17.149 17.149 0 1 1 34.298 0z" opacity=".4" color="#000" fill="none" stroke="#fff" stroke-linecap="round" stroke-linejoin="round" overflow="visible"/>
 <path d="M37.285 24.72c-3.017 5.225-6.544 8.99-12.823 8.99-6.1 0-10.565-4.34-13.352-9.167 2.55 3.056 6.283 6.567 13.087 6.567 8.13 0 9.552-2.907 13.088-6.39z" style="marker:none" opacity=".36" color="#000" fill="#fff" overflow="visible"/>
 <path d="M37.285 24.013c-3.017 5.225-6.544 8.99-12.823 8.99-6.1 0-10.565-4.34-13.352-9.167 2.55 3.056 6.283 6.566 13.087 6.566 8.13 0 9.552-2.906 13.088-6.39z" fill="url(#g)"/>
 <path style="marker:none" d="M40.204 10.452a15.077 2.513 0 1 1-30.153 0 15.077 2.513 0 1 1 30.153 0z" transform="matrix(1.0125 0 0 1.64533 -1.177 -10.685)" color="#000" fill="none" stroke="#c3b400" stroke-width="2.324" overflow="visible"/>
 <path transform="matrix(1.01486 0 0 1.61156 -1.207 -10.339)" d="M40.204 10.452a15.077 2.513 0 1 1-30.153 0 15.077 2.513 0 1 1 30.153 0z" style="marker:none" color="#000" fill="none" stroke="#ffff06" stroke-width=".782" overflow="visible"/>
 <path style="marker:none" d="M25.203 17.579c1.78 4.37 6.33 4.485 7.931.15-2.824 2.239-5.42 1.594-7.93-.15zm-2.069 0c-1.779 4.37-6.33 4.485-7.93.15 2.823 2.239 5.42 1.594 7.93-.15z" color="#000" overflow="visible"/>
</svg>
