<svg xmlns="http://www.w3.org/2000/svg" width="22" height="22">
 <defs>
  <radialGradient id="a" cx="11.827" cy="10.476" r="32.665" gradientTransform="matrix(.6099 0 0 .32791 4.129 4.469)" gradientUnits="userSpaceOnUse">
   <stop stop-color="#fff" offset="0"/>
   <stop stop-color="#fff" stop-opacity="0" offset="1"/>
  </radialGradient>
 </defs>
 <path d="M21.119 14a7.12 7.12 0 1 1-14.24 0 7.12 7.12 0 0 1 14.24 0z" fill="#3465a4"/>
 <path d="M21.211 12.798c-.378 2.86-1.402 4.423-2.014 5.356.19.56-.696.934-1.09 1.308-.362.369-1.052.238-.944-.364-.063-.543-.44-1.038-.3-1.614.215-.718-.249-1.392-.257-2.104-.293-.46-.867-.182-1.295-.147-.66.01-1.002-.727-1.12-1.283.11-.52.149-1.08.538-1.487 1.087-1.142 1.926-.698 2.806-.447.324.083 1.351.25 1.03-.343-1.768-.918-1.268-.632-2.978-.236-.523.562-1.667-2.399-.897-2.34 1.005-.798 2.228-.75 3.306-1.031.227 0 .561.288.138.306-.205.449.514.196.622.06.473.248.685.8 1.084 1.142a7.076 7.076 0 0 1 1.371 3.224zm-9.767 2.86c-.412-.61-1.017-1.181-1.783-1.254-.45.496-1.427.068-1.342-.605-.338-.271-1.256-.432-.866-1.037.41-.538 1.269-.078 1.675-.63.354-.408.545-1.065 1.156-1.156.417-.187.371-.808.877-.866.411-.308.319-1.075-.216-1.182-.48-.165-.53-.87-.827-.617-.654.487-1.074.536-.398.415.575-.381-.445-.866-.594-.244-1.053 1.011-1.896 2.27-2.259 3.696-.11.4-.19.807-.239 1.218.21.635-.036 1.11.459 1.432 1.292 2.134.483 3.439 2.73 4.612-.092.565.644 1.128 1.117.714.615-.358.587-1.191 1.091-1.65.403-.49.593-1.118.646-1.739 0-.467-.399-.9-.874-.897a.81.81 0 0 1-.353-.21" fill="#73d216" color="#000"/>
 <ellipse cx="13.322" cy="10.374" rx="6.686" ry="3.595" opacity=".422" fill="url(#a)"/>
 <path d="M11.112 7.53l.138-.125.277-.063c.189-.092.379-.154.58-.219l-.11-.187-.357.051-.169.168-.278.04-.246.116-.12.058-.074.098.359.063" fill="#73d216" color="#000"/>
 <path d="M21.5 14a7.5 7.5 0 1 1-15 0 7.5 7.5 0 0 1 15 0z" fill="none" stroke="#4e9a06"/>
</svg>
