<svg xmlns="http://www.w3.org/2000/svg" xmlns:xlink="http://www.w3.org/1999/xlink" width="22" height="22" version="1.0">
 <defs>
  <linearGradient id="a">
   <stop offset="0" stop-color="#b9cfe7"/>
   <stop offset="1" stop-color="#729fcf"/>
  </linearGradient>
  <linearGradient id="b">
   <stop offset="0" stop-color="#3465a4"/>
   <stop offset="1" stop-color="#3465a4"/>
  </linearGradient>
  <linearGradient xlink:href="#a" id="c" gradientUnits="userSpaceOnUse" x1="62.514" y1="36.061" x2="15.985" y2="20.609" gradientTransform="matrix(.182 .15377 .15377 -.182 5.785 17.966)"/>
  <linearGradient xlink:href="#b" id="d" gradientUnits="userSpaceOnUse" x1="46.835" y1="45.264" x2="45.38" y2="50.94" gradientTransform="matrix(.182 .15377 .15377 -.182 5.785 17.966)"/>
  <linearGradient xlink:href="#a" id="e" gradientUnits="userSpaceOnUse" gradientTransform="matrix(-.182 -.15377 -.15377 .182 26.01 11.85)" x1="62.514" y1="36.061" x2="15.985" y2="20.609"/>
  <linearGradient xlink:href="#b" id="f" gradientUnits="userSpaceOnUse" gradientTransform="matrix(-.182 -.15377 -.15377 .182 26.01 11.85)" x1="46.835" y1="45.264" x2="45.38" y2="50.94"/>
 </defs>
 <path style="marker:none" d="M21.311 15.824c.348 3.886-4.425 7.338-9.516 3.322l-1.33 1.647.03-5.385 4.95.005-1.542 1.76c3.581 2.714 7.464 2.697 7.408-1.349z" display="block" overflow="visible" color="#000" fill="url(#c)" stroke="url(#d)" stroke-linejoin="round"/>
 <path overflow="visible" display="block" d="M10.484 13.992c-.348-3.886 4.425-7.338 9.517-3.322l1.328-1.647-.03 5.385-4.948-.005 1.54-1.76c-3.58-2.714-7.463-2.697-7.407 1.349z" style="marker:none" color="#000" fill="url(#e)" stroke="url(#f)" stroke-linejoin="round"/>
</svg>
