<svg xmlns="http://www.w3.org/2000/svg" xmlns:xlink="http://www.w3.org/1999/xlink" width="22" height="22">
 <defs>
  <radialGradient xlink:href="#a" id="f" gradientUnits="userSpaceOnUse" gradientTransform="matrix(-2.77439 0 0 1.9697 112.762 -872.885)" cx="605.714" cy="486.648" fx="605.714" fy="486.648" r="117.143"/>
  <linearGradient id="a">
   <stop offset="0"/>
   <stop offset="1" stop-opacity="0"/>
  </linearGradient>
  <radialGradient xlink:href="#a" id="e" gradientUnits="userSpaceOnUse" gradientTransform="matrix(2.77439 0 0 1.9697 -1891.633 -872.885)" cx="605.714" cy="486.648" fx="605.714" fy="486.648" r="117.143"/>
  <linearGradient id="b">
   <stop offset="0" stop-opacity="0"/>
   <stop offset=".5"/>
   <stop offset="1" stop-opacity="0"/>
  </linearGradient>
  <linearGradient xlink:href="#b" id="d" gradientUnits="userSpaceOnUse" gradientTransform="matrix(2.77439 0 0 1.9697 -1892.179 -872.885)" x1="302.857" y1="366.648" x2="302.857" y2="609.505"/>
  <linearGradient xlink:href="#c" id="g" gradientUnits="userSpaceOnUse" gradientTransform="matrix(.34516 0 -.0015 .38019 7.273 3.527)" x1="8.547" y1="30.282" x2="30.851" y2="48.302"/>
 </defs>
 <g transform="matrix(.00717 0 0 .00635 20.941 19.772)" color="#000" stroke-width="6.201">
  <rect style="marker:none" width="1339.633" height="478.357" x="-1559.252" y="-150.697" overflow="visible" opacity=".402" fill="url(#d)"/>
  <path style="marker:none" d="M-219.619-150.68v478.33c142.874.9 345.4-107.17 345.4-239.196S-33.655-150.68-219.619-150.68z" overflow="visible" opacity=".402" fill="url(#e)"/>
  <path d="M-1559.252-150.68v478.33c-142.875.9-345.4-107.17-345.4-239.196s159.436-239.134 345.4-239.134z" style="marker:none" overflow="visible" opacity=".402" fill="url(#f)"/>
 </g>
 <path d="M20.457 19.334l-5.206-9.452a.785.812 86.4 0 0-.722-.409.849.849 0 0 0-.726.438l-5.168 9.452a.815.815 0 0 0 .027.788c.15.233.39.35.692.35h10.374c.302 0 .574-.146.695-.38.152-.233.154-.525.034-.787z" fill="#f57900" stroke="#ce5c00"/>
 <g transform="matrix(.3102 0 -.00132 .29934 -3.208 -.402)" stroke="#000" stroke-width="6.23">
  <linearGradient y2="56.052" x2="47.32" y1="11.113" x1="4.191" gradientUnits="userSpaceOnUse" id="c">
   <stop offset="0" stop-color="#fff"/>
   <stop offset="1" stop-color="#fff" stop-opacity=".34"/>
  </linearGradient>
 </g>
 <path d="M18.937 18.58l-4.407-8.044-4.784 8.941 8.637.053.955-.036z" opacity=".5" fill="none" stroke="url(#g)" stroke-linecap="round" stroke-linejoin="round"/>
 <path d="M14.49 19.023c-.58 0-1.026-.333-1.026-.766 0-.466.402-.766 1.026-.766s.981.3 1.026.766c0 .433-.402.766-1.026.766zm-.624-1.964l-.268-3.828h1.784l-.268 3.828h-1.293z" fill="#fff"/>
</svg>
