<svg xmlns="http://www.w3.org/2000/svg" xmlns:xlink="http://www.w3.org/1999/xlink" width="48" height="48">
 <defs>
  <linearGradient id="b">
   <stop offset="0" stop-opacity=".327"/>
   <stop offset="1" stop-opacity="0"/>
  </linearGradient>
  <linearGradient id="a" gradientUnits="userSpaceOnUse" x1="99.777" y1="15.424" x2="153" y2="248.631">
   <stop offset="0" stop-color="#184375"/>
   <stop offset="1" stop-color="#c8bddc"/>
  </linearGradient>
  <linearGradient xlink:href="#a" id="d" gradientUnits="userSpaceOnUse" x1="99.777" y1="15.424" x2="153" y2="248.631" gradientTransform="translate(-.586 -1.05) scale(.20069)"/>
  <radialGradient gradientUnits="userSpaceOnUse" r="11.69" fy="72.568" fx="14.288" cy="68.873" cx="14.288" gradientTransform="matrix(1.39926 0 0 .51326 4.365 4.84)" id="c" xlink:href="#b"/>
 </defs>
 <path transform="translate(-4.54 -7.795) scale(1.18638)" d="M44.286 38.714a19.929 9.837 0 1 1-39.857 0 19.929 9.837 0 1 1 39.857 0z" style="marker:none" color="#000" fill="url(#c)" fill-rule="evenodd" overflow="visible"/>
 <path d="M24.286 43.196l-19.91-19.91 19.91-19.91 19.91 19.91-19.91 19.91h0z" fill="url(#d)" stroke="#3f4561" stroke-linecap="round" stroke-linejoin="round"/>
 <path d="M43.505 23.286l-19.22-19.22-19.218 19.22.78.625 18.61-18.428 19.048 17.803z" opacity=".72" fill="#fff"/>
 <path d="M8.926 27.145l.738-1.024c.637.268 1.3.485 1.986.645l-.005 1.577c.427.088.863.156 1.304.204l.481-1.502a12.64 12.64 0 0 0 2.087 0l.482 1.502a13.93 13.93 0 0 0 1.304-.204l-.006-1.577a12.27 12.27 0 0 0 1.986-.645l.923 1.28c.402-.183.794-.383 1.174-.601l-.492-1.498a12.455 12.455 0 0 0 1.687-1.228l1.272.932c.326-.297.638-.609.934-.934l-.932-1.272a12.47 12.47 0 0 0 1.229-1.688l1.498.493c.217-.38.418-.773.6-1.175l-1.28-.922c.27-.637.486-1.3.646-1.987l1.576.006c.089-.427.156-.863.204-1.304l-1.501-.482a12.468 12.468 0 0 0 0-2.086l1.501-.482a13.95 13.95 0 0 0-.204-1.304l-1.577.006c-.16-.686-.376-1.35-.644-1.986l1.28-.923a13.926 13.926 0 0 0-.601-1.175l-1.498.493a12.428 12.428 0 0 0-1.228-1.687l.931-1.272a14.02 14.02 0 0 0-.875-.878L5.066 23.286l1.008 1.007.299-.219c.525.455 1.09.866 1.687 1.228l-.242.735 1.108 1.108zm19.523 5.046c0-6.485 4.234-11.98 10.087-13.874L36.31 16.09l-.05.02-.182-.252-1.412-1.412a19.63 19.63 0 0 0-1.36.708l.695 2.11a17.468 17.468 0 0 0-2.376 1.728l-1.79-1.312c-.46.418-.898.856-1.315 1.315l1.311 1.79c-.64.74-1.219 1.535-1.729 2.376l-2.11-.694a19.943 19.943 0 0 0-.844 1.655l1.801 1.298a17.294 17.294 0 0 0-.908 2.797l-2.22-.009a19.49 19.49 0 0 0-.287 1.836l2.114.679a17.706 17.706 0 0 0 0 2.937l-2.114.678c.067.621.163 1.234.287 1.836l2.22-.008c.225.965.53 1.9.908 2.796l-1.801 1.299a19 19 0 0 0 .452.93l3.804-3.803a14.544 14.544 0 0 1-.954-5.197z" opacity=".5" fill="#fff"/>
 <path d="M5.205 23.424l19.08 19.081 19.22-19.22-.715-.681-18.48 18.438L5.205 23.424z" opacity=".35"/>
</svg>
