<svg xmlns="http://www.w3.org/2000/svg" xmlns:xlink="http://www.w3.org/1999/xlink" width="48" height="48">
 <defs>
  <radialGradient xlink:href="#a" id="l" gradientUnits="userSpaceOnUse" gradientTransform="matrix(-2.77439 0 0 1.9697 112.762 -872.885)" cx="605.714" cy="486.648" fx="605.714" fy="486.648" r="117.143"/>
  <linearGradient id="a">
   <stop offset="0"/>
   <stop offset="1" stop-opacity="0"/>
  </linearGradient>
  <radialGradient xlink:href="#a" id="k" gradientUnits="userSpaceOnUse" gradientTransform="matrix(2.77439 0 0 1.9697 -1891.633 -872.885)" cx="605.714" cy="486.648" fx="605.714" fy="486.648" r="117.143"/>
  <linearGradient id="b">
   <stop offset="0" stop-opacity="0"/>
   <stop offset=".5"/>
   <stop offset="1" stop-opacity="0"/>
  </linearGradient>
  <linearGradient xlink:href="#b" id="j" gradientUnits="userSpaceOnUse" gradientTransform="matrix(2.77439 0 0 1.9697 -1892.179 -872.885)" x1="302.857" y1="366.648" x2="302.857" y2="609.505"/>
  <linearGradient id="i">
   <stop offset="0" stop-color="#bbbdba"/>
   <stop offset="1" stop-color="#70746e"/>
  </linearGradient>
  <linearGradient id="f">
   <stop offset="0" stop-color="#fff"/>
   <stop offset="1" stop-color="#fff" stop-opacity="0"/>
  </linearGradient>
  <linearGradient id="h">
   <stop offset="0" stop-color="#7c7c7c"/>
   <stop offset="1" stop-color="#b8b8b8"/>
  </linearGradient>
  <linearGradient id="g">
   <stop offset="0" stop-color="#fff"/>
   <stop offset="1" stop-color="#fff" stop-opacity="0"/>
  </linearGradient>
  <linearGradient id="c" gradientUnits="userSpaceOnUse" x1="21.933" y1="24.627" x2="21.933" y2="7.109" stroke-dasharray="none" stroke-miterlimit="4" stroke-width="1.217">
   <stop offset="0" stop-color="#8595bc"/>
   <stop offset="1" stop-color="#041a3b"/>
  </linearGradient>
  <linearGradient y2="36.033" x2="31.081" y1="3.732" x1="12.487" gradientUnits="userSpaceOnUse" id="e" stroke-dasharray="none" stroke-miterlimit="4" stroke-width="1.217">
   <stop offset="0" stop-color="#d2d2d2"/>
   <stop offset="1" stop-color="#ededed"/>
  </linearGradient>
  <linearGradient y2="7.109" x2="21.933" y1="24.627" x1="21.933" gradientUnits="userSpaceOnUse" id="d" stroke-dasharray="none" stroke-miterlimit="4" stroke-width="1.217">
   <stop offset="0" stop-color="#d0d6e5"/>
   <stop offset="1" stop-color="#093a80"/>
  </linearGradient>
  <linearGradient xlink:href="#c" id="n" gradientUnits="userSpaceOnUse" gradientTransform="matrix(1.09899 0 0 -.79776 -1.954 37.324)" x1="21.933" y1="24.627" x2="21.933" y2="7.109"/>
  <linearGradient xlink:href="#d" id="o" gradientUnits="userSpaceOnUse" gradientTransform="matrix(1.09899 0 0 1.1067 -1.954 -4.922)" x1="21.933" y1="24.627" x2="21.933" y2="7.109"/>
  <linearGradient xlink:href="#e" id="m" gradientUnits="userSpaceOnUse" gradientTransform="matrix(1.434 0 0 .99009 52.322 2.839)" x1="12.487" y1="3.732" x2="31.081" y2="36.033"/>
  <radialGradient xlink:href="#f" id="s" cx="12.7" cy="10.405" fx="12.7" fy="10.405" r="19.969" gradientTransform="matrix(1.71053 0 0 1.12485 -11.568 1.803)" gradientUnits="userSpaceOnUse"/>
  <linearGradient xlink:href="#g" id="r" gradientUnits="userSpaceOnUse" gradientTransform="translate(5.148 -3.41)" x1="33.396" y1="36.921" x2="34.17" y2="38.07"/>
  <linearGradient xlink:href="#h" id="p" gradientUnits="userSpaceOnUse" gradientTransform="translate(5.148 -3.035)" x1="35.997" y1="40.458" x2="33.665" y2="37.771"/>
  <linearGradient xlink:href="#i" id="q" x1="42.188" y1="31" x2="45" y2="39.985" gradientUnits="userSpaceOnUse"/>
 </defs>
 <g transform="matrix(.02175 0 0 .02493 42.41 33.811)" color="#000">
  <rect style="marker:none" width="1339.633" height="478.357" x="-1559.252" y="-150.697" opacity=".402" fill="url(#j)" overflow="visible"/>
  <path style="marker:none" d="M-219.619-150.68v478.33c142.874.9 345.4-107.17 345.4-239.196S-33.655-150.68-219.619-150.68z" opacity=".402" fill="url(#k)" overflow="visible"/>
  <path d="M-1559.252-150.68v478.33c-142.875.9-345.4-107.17-345.4-239.196s159.436-239.134 345.4-239.134z" style="marker:none" opacity=".402" fill="url(#l)" overflow="visible"/>
 </g>
 <path style="marker:none" d="M2.718 6.455H43.38c.623 0 1.125.502 1.125 1.125v23.9c0 .624-8.457 8.02-9.08 8.02H2.718a1.123 1.123 0 0 1-1.125-1.125V7.58c0-.623.502-1.125 1.125-1.125z" color="#000" fill="url(#m)" stroke="#bbbfbb" overflow="visible"/>
 <path d="M5.513 30h34.13V19.627H5.513V30z" fill="url(#n)" transform="matrix(1.05477 0 0 1.04999 -.815 4.485)"/>
 <path d="M5.513 5.238h34.13v14.39H5.513V5.237z" fill="url(#o)" transform="matrix(1.05477 0 0 1.04999 -.815 4.485)"/>
 <g stroke-width="1.156">
  <path d="M18.547 16.852c0 2.747-2.258 5.12-5.143 5.12-2.76 0-5.143-2.248-5.143-5.12 0-2.747 2.258-5.12 5.143-5.12 2.76 0 5.143 2.248 5.143 5.12z" opacity=".05" fill="#e8f52f"/>
  <path d="M18.045 16.852a4.62 4.62 0 0 1-4.64 4.62c-2.51 0-4.642-1.997-4.642-4.62a4.62 4.62 0 0 1 4.641-4.62c2.509 0 4.641 1.998 4.641 4.62z" opacity=".208" fill="#ecf751"/>
  <path d="M17.544 16.852c0 2.248-1.882 4.12-4.14 4.12s-4.14-1.872-4.14-4.12c0-2.247 1.882-4.12 4.14-4.12s4.14 1.873 4.14 4.12z" opacity=".367" fill="#f0f972"/>
  <path d="M17.042 16.852a3.631 3.631 0 0 1-3.638 3.621c-2.007 0-3.637-1.623-3.637-3.62 0-1.999 1.63-3.622 3.637-3.622s3.638 1.623 3.638 3.621z" opacity=".525" fill="#f4fa95"/>
  <path d="M16.54 16.852c0 1.748-1.38 3.122-3.136 3.122-1.756 0-3.136-1.374-3.136-3.122 0-1.748 1.38-3.121 3.136-3.121 1.756 0 3.136 1.373 3.136 3.121z" opacity=".683" fill="#f7fcb7"/>
  <path d="M16.038 16.852c0 1.499-1.254 2.623-2.634 2.623s-2.634-1.25-2.634-2.623c0-1.373 1.254-2.622 2.634-2.622s2.634 1.249 2.634 2.622z" opacity=".842" fill="#fbfddb"/>
  <path d="M15.537 16.852a2.243 2.243 0 0 1-2.258 2.248 2.243 2.243 0 0 1-2.258-2.248 2.243 2.243 0 0 1 2.258-2.247c1.254 0 2.258.999 2.258 2.247z" fill="#fff"/>
 </g>
 <path d="M25.571 27.216h9.157l1.756.5h-3.01s3.01.25 4.516 2.122c1.505 1.749-1.757 3.871-1.757 3.871-.125-.374-.878-3.371-2.383-4.62-1.129-.999-2.383-1.248-2.383-1.248H25.57v-.625z" opacity=".3"/>
 <path d="M31.592 27.965h-5.268l9.784 5.495-4.516-5.495z" opacity=".3"/>
 <path d="M25.571 27.341h9.157l1.38-.874h-3.01s2.76-.5 3.135-3.621c.377-3.122-4.264-6.618-4.264-6.618v.125c.125.75 1.38 5.993.501 7.991-.376 1.748-1.505 2.123-1.505 2.123h-5.77l.251.874h.125z" fill="#515151"/>
 <path d="M31.09 25.968h-5.268l6.272-9.49-1.003 9.49z" fill="#515151"/>
 <path style="marker:none" d="M2.804 7.453h40.43a.27.27 0 0 1 .271.271v23.699c0 .946-7.103 7.077-7.254 7.077H2.804a.27.27 0 0 1-.271-.271V7.724a.27.27 0 0 1 .271-.271z" color="#000" fill="none" stroke="#fff" overflow="visible"/>
 <rect style="marker:none" width="35.063" height="25.063" x="5.5" y="10.5" opacity=".847" color="#000" fill="none" stroke="#4f4f4f" overflow="visible"/>
 <path style="marker:none" d="M35.207 39.469c2.03.33 9.588-4.53 9.284-8.498-1.563 2.423-4.758 1.287-8.867 1.446 0 0 .395 6.552-.417 7.052z" color="#000" fill="url(#p)" fill-rule="evenodd" stroke="url(#q)" overflow="visible"/>
 <path d="M36.657 37.277c1.37-.684 4.428-2.146 5.728-4.027-1.596.68-2.948.21-5.703.19 0 0 .163 3.062-.025 3.837z" style="marker:none" opacity=".369" color="#000" fill="none" stroke="url(#r)" overflow="visible"/>
 <path style="marker:none" d="M3.063 8v22.063C25.389 30.95 27.884 17 43 17V8H3.062z" opacity=".301" color="#000" fill="url(#s)" overflow="visible"/>
</svg>
