<svg xmlns="http://www.w3.org/2000/svg" xmlns:xlink="http://www.w3.org/1999/xlink" width="48" height="48">
 <defs>
  <linearGradient id="f">
   <stop offset="0" stop-color="#fff"/>
   <stop offset="1" stop-color="#fff" stop-opacity="0"/>
  </linearGradient>
  <linearGradient id="e">
   <stop offset="0" stop-color="#dfe2dc"/>
   <stop offset="1" stop-color="#86917a"/>
  </linearGradient>
  <linearGradient id="d">
   <stop offset="0" stop-color="#fff"/>
   <stop offset="1" stop-color="#aeaea3"/>
  </linearGradient>
  <linearGradient id="c">
   <stop offset="0"/>
   <stop offset="1" stop-opacity="0"/>
  </linearGradient>
  <linearGradient id="b">
   <stop offset="0" stop-color="#babdb6"/>
   <stop offset="1" stop-color="#fff"/>
  </linearGradient>
  <linearGradient id="a">
   <stop offset="0"/>
   <stop offset="1" stop-opacity="0"/>
  </linearGradient>
  <radialGradient xlink:href="#a" id="g" cx="24.837" cy="40.664" fx="24.837" fy="40.664" r="21.478" gradientTransform="matrix(1 0 0 .3251 0 27.444)" gradientUnits="userSpaceOnUse"/>
  <linearGradient xlink:href="#b" id="k" x1="24.366" y1="20.246" x2="32.601" y2="28.555" gradientUnits="userSpaceOnUse"/>
  <linearGradient xlink:href="#b" id="j" gradientUnits="userSpaceOnUse" x1="22.009" y1="36.51" x2="23.585" y2="14.412"/>
  <linearGradient xlink:href="#c" id="l" x1="25.633" y1="10.612" x2="38.714" y2="18.39" gradientUnits="userSpaceOnUse"/>
  <radialGradient xlink:href="#d" id="h" gradientUnits="userSpaceOnUse" gradientTransform="matrix(2.13567 0 0 2.1106 -26.902 -15.67)" cx="23.688" cy="14.211" fx="23.688" fy="14.211" r="22.597"/>
  <radialGradient xlink:href="#e" id="i" gradientUnits="userSpaceOnUse" gradientTransform="matrix(1.79027 0 0 1.76926 -15.814 -11.95)" cx="20.09" cy="10.854" fx="20.09" fy="10.854" r="22.597"/>
  <linearGradient xlink:href="#f" id="n" x1="19.451" y1="14.464" x2="23.719" y2="48.405" gradientUnits="userSpaceOnUse"/>
 </defs>
 <g color="#000">
  <path style="marker:none" d="M46.315 40.664a21.478 6.983 0 1 1-42.956 0 21.478 6.983 0 1 1 42.956 0z" transform="translate(-3.365 -5.412) scale(1.107)" opacity=".326" fill="url(#g)" fill-rule="evenodd" overflow="visible"/>
  <path style="marker:none" d="M9.016 37.57L7.248 40.4l3.712 1.59 2.652-2.12 11.844.883 3.712 4.95 3.359-5.48 4.243 2.298 5.656-.707-1.414-3.005 3.89-3.89-5.48-6.187 5.303.707 2.298-2.12-3.006.53-3.182-5.48-4.596-1.061 3.713-1.238.176-3.182-7.248-6.364-2.651-8.485-12.021 3.536-3.005 7.07-1.06-2.297-3.006.176v2.829L7.6 9.286l-4.773 5.126v7.248l8.309 7.248-5.303 3.005.176 3.006 3.006 2.651z" id="m" opacity="1" fill="url(#h)" fill-opacity="1" fill-rule="evenodd" stroke="url(#i)" stroke-width="1" stroke-linecap="butt" stroke-linejoin="miter" marker-start="none" marker-mid="none" marker-end="none" stroke-miterlimit="4" stroke-dasharray="none" stroke-dashoffset="0" stroke-opacity="1" visibility="visible" display="inline" overflow="visible"/>
  <path style="marker:none" d="M19.445 22.72l-.883 6.542 2.12 3.358-4.595 1.415-2.652 5.303 12.02.884 2.83 4.066 2.297-6.187-4.419-2.829-6.718 1.945 2.652-3.536-1.414-6.187-1.238-4.773z" opacity=".77" fill="url(#j)" fill-rule="evenodd" overflow="visible"/>
  <path style="marker:none" d="M20.506 23.782l4.42 6.894 7.247-4.95 4.42 2.475 3.535-3.005 3.182 2.828-3.005-4.95-6.894-1.59-8.662-4.243s-12.375 3.712-11.668 3.712c.708 0 10.254.177 10.254.177l1.59-2.298 4.243 1.944-8.662 3.006z" opacity=".618" fill="url(#k)" fill-rule="evenodd" overflow="visible"/>
  <path style="marker:none" d="M29.522 3.452l-10.43 3.536-1.414 3.889 6.01 4.243 5.657-5.48.177-6.188z" fill="#fff" fill-rule="evenodd" overflow="visible"/>
  <path style="marker:none" d="M29.698 3.806l2.299 7.424 4.242 3.713-8.662-1.945s-2.475 2.829-1.414 2.829c1.06 0 12.551 1.414 12.551 1.414l-.177 2.298-16.263-3.005 7.07-6.541.354-6.187z" opacity=".135" fill="url(#l)" fill-rule="evenodd" overflow="visible"/>
  <path style="marker:none" d="M7.425 14.236l-.884 8.838 1.944-6.01 5.127 1.591 1.237-2.652 6.187.884 1.415-1.237-9.016-.354-.884 2.475-3.889-1.944-1.237-1.591zM22.45 27.317l3.006 3.536 6.894-4.597 4.243 2.299 6.894 6.54-7.601-5.833-3.713-1.061-7.247 4.95-2.475-5.834z" fill="#fff" fill-rule="evenodd" overflow="visible"/>
  <path xlink:href="#m" style="marker:none" d="M29.656 3.094L18.844 6.25 15.969 13a.838.838 0 0 1-1.531 0l-.782-1.781-1.687.094v2.03a.838.838 0 0 1-1.469.563l-2.938-3.375-3.875 4.188v6.562l8 7a.838.838 0 0 1-.156 1.344l-4.812 2.75.093 2.125 2.75 2.438c.303.27.368.717.157 1.062l-1.25 2 2.375 1.031 2.25-1.812a.838.838 0 0 1 .594-.188l11.843.875a.84.84 0 0 1 .594.344l2.969 3.969 2.718-4.438a.838.838 0 0 1 1.125-.312l4.032 2.187 4.218-.531-.937-1.938a.838.838 0 0 1 .156-.968l3.344-3.344-4.969-5.594a.838.838 0 0 1 .75-1.406l3.875.531a.838.838 0 0 1-.093-.156l-3-5.156-4.25-.969a.838.838 0 0 1-.094-1.594l3.156-1.062.125-2.25-6.938-6.063a.838.838 0 0 1-.25-.375l-2.406-7.687z" fill="none" stroke="url(#n)" overflow="visible"/>
 </g>
</svg>
