<svg xmlns="http://www.w3.org/2000/svg" xmlns:xlink="http://www.w3.org/1999/xlink" width="48" height="48">
 <defs>
  <radialGradient xlink:href="#a" id="f" gradientUnits="userSpaceOnUse" gradientTransform="matrix(-2.77439 0 0 1.9697 112.762 -872.885)" cx="605.714" cy="486.648" fx="605.714" fy="486.648" r="117.143"/>
  <linearGradient id="a">
   <stop offset="0"/>
   <stop offset="1" stop-opacity="0"/>
  </linearGradient>
  <radialGradient xlink:href="#a" id="e" gradientUnits="userSpaceOnUse" gradientTransform="matrix(2.77439 0 0 1.9697 -1891.633 -872.885)" cx="605.714" cy="486.648" fx="605.714" fy="486.648" r="117.143"/>
  <linearGradient id="b">
   <stop offset="0" stop-opacity="0"/>
   <stop offset=".5"/>
   <stop offset="1" stop-opacity="0"/>
  </linearGradient>
  <linearGradient xlink:href="#b" id="d" gradientUnits="userSpaceOnUse" gradientTransform="matrix(2.77439 0 0 1.9697 -1892.179 -872.885)" x1="302.857" y1="366.648" x2="302.857" y2="609.505"/>
  <linearGradient id="c">
   <stop offset="0" stop-color="#f5f5f5"/>
   <stop offset="1" stop-color="#e9e9e9"/>
  </linearGradient>
  <linearGradient xlink:href="#c" id="g" gradientUnits="userSpaceOnUse" gradientTransform="matrix(-1.4017 0 0 1.4169 70.608 -3.476)" x1="35.004" y1="10.957" x2="27.273" y2="24.144"/>
 </defs>
 <g color="#000">
  <g transform="matrix(.02132 0 0 .0293 44.33 29.272)" opacity=".629" stroke-width=".712">
   <rect style="marker:none" width="1339.633" height="478.357" x="-1559.252" y="-150.697" overflow="visible" opacity=".402" fill="url(#d)"/>
   <path style="marker:none" d="M-219.619-150.68v478.33c142.874.9 345.4-107.17 345.4-239.196S-33.655-150.68-219.619-150.68z" overflow="visible" opacity=".402" fill="url(#e)"/>
   <path d="M-1559.252-150.68v478.33c-142.875.9-345.4-107.17-345.4-239.196s159.436-239.134 345.4-239.134z" style="marker:none" overflow="visible" opacity=".402" fill="url(#f)"/>
  </g>
  <path d="M40.735 5.557c1.49 0 2.672 1.239 2.672 2.745V29.91c0 1.507-1.182 2.701-2.672 2.701H21.067c-1.191 1.583-3.51 4.15-9.067 6.288 2.474-2.94 2.469-4.936 2.19-6.288h-4.03a2.705 2.705 0 0 1-2.716-2.7V8.301c0-1.506 1.226-2.745 2.716-2.745z" style="marker:none" display="block" overflow="visible" fill="url(#g)" stroke="#787878"/>
  <path style="marker:none" d="M40.649 6.61c1.392 0 1.824.679 1.824 2.09v20.87c0 1.411-.357 2.01-1.75 2.01H20.632c-1.113 1.484-3.886 3.98-6.018 4.943.595-1.189 1.03-2.42.366-4.943h-4.756c-1.392 0-1.791-.599-1.791-2.01V8.885c0-1.41.399-2.274 1.79-2.274z" display="block" overflow="visible" fill="none" stroke="#fff"/>
 </g>
</svg>
