<svg xmlns="http://www.w3.org/2000/svg" xmlns:xlink="http://www.w3.org/1999/xlink" width="48" height="48">
 <defs>
  <linearGradient id="c">
   <stop offset="0" stop-color="#fff"/>
   <stop offset="1" stop-color="#fff" stop-opacity="0"/>
  </linearGradient>
  <linearGradient id="b">
   <stop offset="0" stop-color="#fcaf3e"/>
   <stop offset="1" stop-color="#d37f03"/>
  </linearGradient>
  <linearGradient id="a">
   <stop offset="0" stop-opacity=".327"/>
   <stop offset="1" stop-opacity="0"/>
  </linearGradient>
  <radialGradient gradientUnits="userSpaceOnUse" r="11.69" fy="72.568" fx="14.288" cy="68.873" cx="14.288" gradientTransform="matrix(1.39926 0 0 .51326 4.365 4.84)" id="d" xlink:href="#a"/>
  <radialGradient xlink:href="#b" id="e" cx="24.286" cy="36.721" fx="24.286" fy="36.721" r="20.411" gradientUnits="userSpaceOnUse" gradientTransform="translate(-17.677 -26.728) scale(1.72787)"/>
  <linearGradient xlink:href="#c" id="f" x1="26.503" y1="10.027" x2="28.786" y2="52.807" gradientUnits="userSpaceOnUse"/>
 </defs>
 <path transform="translate(-4.54 -7.795) scale(1.18638)" d="M44.286 38.714a19.929 9.837 0 1 1-39.857 0 19.929 9.837 0 1 1 39.857 0z" style="marker:none" color="#000" fill="url(#d)" fill-rule="evenodd" overflow="visible"/>
 <path d="M24.286 43.196l-19.91-19.91 19.91-19.91 19.91 19.91-19.91 19.91h0z" fill="url(#e)" stroke="#f57900" stroke-linecap="round" stroke-linejoin="round"/>
 <path d="M39.44 19.377L38.7 20.4c-.636-.269-1.3-.485-1.986-.645l.006-1.577a13.94 13.94 0 0 0-1.304-.204l-.482 1.502a12.64 12.64 0 0 0-2.086 0l-.482-1.502a13.93 13.93 0 0 0-1.304.204l.006 1.577c-.686.16-1.35.376-1.986.645l-.923-1.28c-.402.182-.794.383-1.175.6l.493 1.499c-.597.362-1.162.773-1.687 1.228l-1.273-.932c-.325.297-.637.608-.933.934l.931 1.272c-.454.526-.866 1.09-1.228 1.688l-1.498-.493a13.8 13.8 0 0 0-.6 1.175l1.28.922A12.31 12.31 0 0 0 21.823 29l-1.577-.005a13.87 13.87 0 0 0-.204 1.304l1.502.482a12.468 12.468 0 0 0 0 2.086l-1.502.482c.048.441.116.876.204 1.304l1.577-.006c.16.686.377 1.35.645 1.986l-1.28.922c.182.403.383.795.6 1.176l1.499-.493a12.43 12.43 0 0 0 1.228 1.687l-.932 1.272c.279.306.571.598.876.878l18.839-18.84-1.007-1.006-.299.219a12.443 12.443 0 0 0-1.687-1.228l.242-.735-1.108-1.109zM19.917 14.33c0 6.485-4.234 11.98-10.088 13.875l2.227 2.227.051-.02.182.252 1.412 1.412a19.63 19.63 0 0 0 1.359-.708l-.694-2.11a17.468 17.468 0 0 0 2.376-1.728l1.79 1.312c.46-.418.898-.856 1.315-1.315l-1.311-1.79a17.44 17.44 0 0 0 1.728-2.377l2.11.695c.306-.537.589-1.089.845-1.655l-1.801-1.298c.378-.897.683-1.831.907-2.797l2.22.009c.125-.603.22-1.216.288-1.836l-2.115-.679a17.706 17.706 0 0 0 0-2.937l2.115-.678a19.524 19.524 0 0 0-.288-1.836l-2.22.008c-.224-.965-.53-1.9-.907-2.796l1.8-1.299a19.442 19.442 0 0 0-.451-.93l-3.804 3.803a14.55 14.55 0 0 1 .954 5.197z" opacity=".5" fill="#fff"/>
 <path d="M24.286 41.605l-18.32-18.32 18.32-18.319 18.32 18.32-18.32 18.32h0z" fill="none" stroke="url(#f)" opacity=".473"/>
</svg>
