<svg xmlns="http://www.w3.org/2000/svg" xmlns:xlink="http://www.w3.org/1999/xlink" height="48" width="48">
 <defs>
  <radialGradient xlink:href="#a" id="i" gradientUnits="userSpaceOnUse" gradientTransform="matrix(-2.77439 0 0 1.9697 112.762 -872.885)" cx="605.714" cy="486.648" fx="605.714" fy="486.648" r="117.143"/>
  <linearGradient id="a">
   <stop offset="0"/>
   <stop offset="1" stop-opacity="0"/>
  </linearGradient>
  <radialGradient xlink:href="#a" id="h" gradientUnits="userSpaceOnUse" gradientTransform="matrix(2.77439 0 0 1.9697 -1891.633 -872.885)" cx="605.714" cy="486.648" fx="605.714" fy="486.648" r="117.143"/>
  <linearGradient id="b">
   <stop offset="0" stop-opacity="0"/>
   <stop offset=".5"/>
   <stop offset="1" stop-opacity="0"/>
  </linearGradient>
  <linearGradient xlink:href="#b" id="g" gradientUnits="userSpaceOnUse" gradientTransform="matrix(2.77439 0 0 1.9697 -1892.179 -872.885)" x1="302.857" y1="366.648" x2="302.857" y2="609.505"/>
  <linearGradient id="c">
   <stop offset="0" stop-color="#fbf0e0"/>
   <stop offset="1" stop-color="#f0ce99"/>
  </linearGradient>
  <linearGradient id="e">
   <stop offset="0" stop-color="#fff"/>
   <stop offset="1" stop-color="#fff" stop-opacity=".686"/>
  </linearGradient>
  <linearGradient id="f">
   <stop offset="0" stop-color="#eaba6f"/>
   <stop offset="1" stop-color="#b97a1b"/>
  </linearGradient>
  <linearGradient id="d">
   <stop offset="0" stop-color="#a36d18"/>
   <stop offset="1" stop-color="#d79020"/>
  </linearGradient>
  <linearGradient xlink:href="#c" id="m" gradientUnits="userSpaceOnUse" x1="30.062" y1="13.445" x2="17.696" y2="12.334"/>
  <linearGradient xlink:href="#d" id="l" gradientUnits="userSpaceOnUse" gradientTransform="matrix(1.04648 0 0 .95312 -1.002 .76)" x1="16.149" y1="12.637" x2="34.194" y2="12.637"/>
  <linearGradient xlink:href="#e" id="k" gradientUnits="userSpaceOnUse" x1="18.707" y1="19.912" x2="30.015" y2="47.388" gradientTransform="matrix(1.00664 0 0 .94352 -.056 2.108)"/>
  <linearGradient xlink:href="#f" id="j" gradientUnits="userSpaceOnUse" x1="24.99" y1="34.005" x2="24.99" y2="22.585"/>
 </defs>
 <g transform="matrix(.02105 0 0 .02087 42.602 35.404)" color="#000">
  <rect style="marker:none" width="1339.633" height="478.357" x="-1559.252" y="-150.697" opacity=".402" fill="url(#g)" overflow="visible"/>
  <path style="marker:none" d="M-219.619-150.68v478.33c142.874.9 345.4-107.17 345.4-239.196S-33.655-150.68-219.619-150.68z" opacity=".402" fill="url(#h)" overflow="visible"/>
  <path d="M-1559.252-150.68v478.33c-142.875.9-345.4-107.17-345.4-239.196s159.436-239.134 345.4-239.134z" style="marker:none" opacity=".402" fill="url(#i)" overflow="visible"/>
 </g>
 <rect ry="2.394" rx="2.424" y="15.275" x="7.462" height="23.113" width="31.978" style="marker:none" color="#000" fill="url(#j)" stroke="#a0670c" display="block" overflow="visible"/>
 <rect style="marker:none" width="30.002" height="19.885" x="8.499" y="17.434" rx="1.311" ry="1.311" color="#000" display="block" overflow="visible" opacity=".481" fill="none" stroke="url(#k)"/>
 <path d="M7.73 16.52l5.73-6.94 19.67-.093 5.858 6.905z" fill="url(#l)" fill-rule="evenodd" stroke="#a0670c" stroke-linecap="round" stroke-linejoin="round"/>
 <path d="M9.405 15.431l4.176-4.838 18.993-.075 4.337 4.862z" opacity=".88" fill="none" stroke="url(#m)" stroke-linecap="round" stroke-linejoin="round"/>
 <path d="M23.485 9.69v6.782" fill="none" stroke="#a0670c"/>
 <path d="M24.5 10.037v5.791" fill="none" stroke="#f0d7b1"/>
 <path d="M22.47 10.037v5.791" fill="none" stroke="#ebcd9d"/>
</svg>
