<svg xmlns="http://www.w3.org/2000/svg" xmlns:xlink="http://www.w3.org/1999/xlink" width="48" height="48">
 <defs>
  <linearGradient id="c">
   <stop offset="0" stop-color="#fff"/>
   <stop offset="1" stop-color="#fff" stop-opacity="0"/>
  </linearGradient>
  <linearGradient id="b">
   <stop offset="0" stop-color="#fff"/>
   <stop offset="1" stop-color="#fff" stop-opacity=".165"/>
  </linearGradient>
  <linearGradient id="a">
   <stop offset="0"/>
   <stop offset="1" stop-opacity="0"/>
  </linearGradient>
  <radialGradient xlink:href="#a" id="d" gradientTransform="scale(1.64399 .60828)" cx="15.116" cy="63.965" fx="15.116" fy="63.965" r="12.289" gradientUnits="userSpaceOnUse"/>
  <radialGradient xlink:href="#b" id="e" gradientTransform="scale(.99999 1.00001)" cx="15.601" cy="12.142" fx="15.601" fy="12.142" r="43.527" gradientUnits="userSpaceOnUse"/>
  <radialGradient xlink:href="#c" id="f" gradientTransform="matrix(1.2907 0 0 .86504 5.358 -.5)" cx="11.827" cy="10.476" fx="11.827" fy="10.476" r="32.665" gradientUnits="userSpaceOnUse"/>
 </defs>
 <path d="M45.053 38.909a20.203 7.475 0 1 1-40.406 0 20.203 7.475 0 1 1 40.406 0z" transform="matrix(1 0 0 1.24324 0 -10.272)" fill="url(#d)"/>
 <path d="M43.96 23.485c0 10.71-8.682 19.392-19.39 19.392-10.71 0-19.391-8.682-19.391-19.392 0-10.709 8.681-19.39 19.39-19.39 10.709 0 19.39 8.681 19.39 19.39h0z" fill="#3465a4" stroke="#39396c"/>
 <g fill-opacity=".713">
  <path d="M43.415 20.582c0 .258 0 0 0 0l-.535.606c-.328-.386-.696-.711-1.07-1.051l-.822.12-.75-.847v1.05l.643.486.428.484.571-.646.43.808v.808l-.644.727-1.179.809-.892.89-.571-.648.285-.727-.57-.647-.965-2.06-.82-.93-.216.242.323 1.173.606.687c.346 1 .689 1.955 1.144 2.91.705 0 1.37-.075 2.07-.163v.566l-.857 2.102-.786.888-.642 1.376v2.262l.215.89-.357.403-.787.486-.821.686.68.768-.93.81.179.523-1.393 1.578h-.928l-.786.485h-.5v-.647l-.213-1.295c-.277-.811-.564-1.617-.857-2.423 0-.595.035-1.184.071-1.779l.358-.807-.501-.971.036-1.334-.679-.767.34-1.111-.553-.627h-.965l-.321-.364-.964.607-.393-.446-.893.768-1.82-2.06-.714-1.699.642-.969-.357-.404.785-1.86a67.248 67.248 0 0 1 2-2.343l1.214-.324 1.357-.16.928.242 1.321 1.332.465-.524.641-.081 1.215.404h.929l.642-.566.286-.404-.644-.404-1.071-.08c-.298-.413-.574-.847-.927-1.213l-.358.161-.143 1.052-.643-.728-.141-.81-.714-.563h-.287l.715.807-.286.728-.571.16.357-.726-.644-.323-.57-.646-1.072.241-.142.323-.643.405-.357.889-.892.444-.394-.444h-.427v-1.455l.928-.486h.714l-.144-.565-.57-.566.963-.202.536-.606.428-.728h.786l-.215-.565.501-.323v.647l1.07.241 1.071-.888.072-.405.928-.646c-.336.042-.672.072-1 .162v-.728l.357-.809h-.357l-.784.727-.215.405.215.566-.358.97-.57-.324-.5-.565-.786.565-.286-1.293 1.356-.889v-.485l.858-.566 1.356-.323.93.323 1.712.324-.427.484h-.929l.929.97.713-.808.217-.355s2.738 2.454 4.303 5.138c1.565 2.685 2.3 5.85 2.3 6.493zM25.732 9.306l-.072.485.5.323.856-.565-.427-.485-.572.323-.285-.08m.785-3.314l-1.857-.728-2.141.242-2.643.728-.5.485 1.643 1.131v.647l-.643.646.857 1.699.57-.324.716-1.132a24.577 24.577 0 0 0 3.14-1.212l.858-2.182m1.929 6.79l-.286-.729-.5.163.143.888.643-.322"/>
  <path d="M28.73 12.62l-.142.97.785-.162.571-.565-.5-.485c-.167-.447-.36-.865-.57-1.293h-.428v.484l.285.323v.728M18.163 27.977l-.572-1.132-1.071-.242-.572-1.535-1.428.161-1.213-.888-1.286 1.131v.178c-.39-.112-.867-.127-1.214-.34l-.286-.808v-.89l-.856.081.214-1.697h-.5l-.5.647-.5.242-.714-.403-.072-.89.143-.97 1.072-.807h.857l.142-.486 1.071.242.786.97.143-1.617 1.357-1.13.5-1.213 1-.404.57-.808 1.285-.244.644-.969h-1.929l1.214-.566h.857l1.214-.405.143-.483-.429-.405-.5-.162.143-.484-.357-.728-.857.323.143-.646-1-.566-.785 1.373.071.485-.785.324-.5 1.05-.214-.969-1.357-.566-.215-.727 1.786-1.052.786-.727.071-.889-.428-.242-.572-.081-.356.889s-.598.117-.751.155c-1.961 1.807-5.923 5.708-6.844 13.071.037.171.668 1.161.668 1.161l1.5.889 1.499.404.643.81.999.726.571-.08.429.193v.13l-.571 1.535-.43.647.144.324-.357 1.211 1.285 2.345 1.285 1.132.572.807-.072 1.698.43.97-.43 1.859s-.033-.012.021.174c.056.186 2.288 1.426 2.43 1.32.142-.107.263-.201.263-.201l-.143-.403.571-.566.215-.566.928-.325.714-1.778-.214-.484.499-.727 1.072-.243.571-1.294-.143-1.615.857-1.213.143-1.212a273.49 273.49 0 0 1-3.499-1.779M16.591 9.63l.714.484h.572V9.55l-.714-.324-.572.404"/>
  <path d="M14.735 8.983l-.358.889h.715l.357-.808c.308-.218.615-.437.928-.647l.715.243 1.428.97.714-.647-.786-.323-.357-.728-1.357-.162-.071-.404-.643.162-.286.566-.357-.728-.142.324.071.808-.571.485m2.57-2.021l.357-.323.715-.162c.489-.238.98-.398 1.5-.566l-.286-.485-.922.133-.435.434-.718.104-.639.3-.31.15-.19.254.928.16m1.215 7.679l.428-.646-.643-.484.214 1.13"/>
 </g>
 <g style="marker:none" color="#000" fill="#4e9a06" stroke-width="1.018">
  <path d="M43.213 20.38c0 .258 0 0 0 0l-.535.606c-.328-.386-.696-.711-1.07-1.051l-.822.12-.75-.847v1.05l.643.486.428.484.571-.646.43.808v.808l-.644.727-1.179.809-.892.89-.571-.648.285-.727-.57-.647-.965-2.06-.82-.93-.216.242.323 1.173.606.687c.346 1 .689 1.955 1.144 2.91.705 0 1.37-.075 2.07-.163v.566l-.857 2.102-.786.888-.642 1.376v2.262l.215.89-.357.403-.787.486-.821.686.679.768-.929.81.179.523L35.18 37.8h-.928l-.786.485h-.5v-.647l-.213-1.295c-.277-.811-.564-1.617-.857-2.423 0-.595.035-1.184.07-1.779l.359-.807-.501-.971.036-1.334-.679-.767.34-1.111-.553-.627h-.965l-.321-.364-.964.607-.393-.446-.893.768-1.82-2.06-.714-1.699.642-.969-.357-.404.785-1.86a67.248 67.248 0 0 1 2-2.343l1.214-.324 1.357-.16.928.242 1.321 1.332.465-.524.641-.081 1.215.404h.928l.643-.566.286-.404-.644-.404-1.071-.08c-.298-.413-.574-.847-.927-1.213l-.358.161-.143 1.052-.643-.728-.141-.81-.714-.563h-.287l.715.807-.286.728-.571.16.357-.726-.644-.323-.57-.646-1.072.241-.142.323-.643.405-.357.889-.892.444-.394-.444h-.427V15.49l.928-.486h.714l-.144-.565-.57-.566.963-.202.536-.606.428-.728h.786l-.215-.565.501-.323v.646l1.07.242 1.071-.888.072-.405.928-.646c-.336.042-.672.072-1 .162v-.728l.357-.809h-.357l-.784.727-.215.405.215.566-.358.97-.57-.324-.5-.565-.786.565-.286-1.293 1.356-.889V8.7l.858-.566 1.356-.323.93.323 1.712.324-.427.484h-.929l.929.97.713-.808.217-.355s2.738 2.454 4.303 5.138c1.565 2.685 2.3 5.85 2.3 6.493zM25.53 9.104l-.072.485.5.323.856-.565-.427-.485-.572.323-.285-.08m.785-3.315l-1.857-.727-2.141.242-2.643.728-.5.485 1.643 1.131v.647l-.643.646.857 1.699.57-.324.716-1.132a24.577 24.577 0 0 0 3.14-1.212l.858-2.182m1.929 6.789l-.286-.728-.5.163.143.888.643-.322" style="marker:none" overflow="visible"/>
  <path d="M28.529 12.418l-.143.97.785-.162.571-.565-.5-.485c-.167-.447-.36-.865-.57-1.293h-.428v.484l.285.323v.728M17.96 27.775l-.571-1.132-1.071-.242-.572-1.535-1.428.161-1.213-.888-1.286 1.131v.178c-.39-.112-.867-.127-1.214-.34l-.286-.808v-.89l-.856.081.214-1.697h-.5l-.5.647-.5.241-.714-.402-.072-.89.143-.97 1.072-.808h.856l.143-.485 1.071.242.786.97.143-1.617 1.357-1.13.5-1.213 1-.404.57-.808 1.285-.244.644-.969h-1.929l1.214-.566h.857l1.214-.405.143-.483-.429-.405-.5-.162.143-.485-.357-.727-.857.323.143-.646-1-.566-.785 1.373.071.485-.785.324-.5 1.05-.214-.969-1.357-.566-.215-.727 1.786-1.052.785-.727.072-.889-.428-.242-.572-.081-.356.889s-.598.117-.751.155c-1.961 1.807-5.923 5.708-6.844 13.071.037.171.668 1.161.668 1.161l1.499.889 1.5.404.643.81.999.726.571-.08.429.193v.13l-.571 1.535-.43.647.144.324-.357 1.211 1.285 2.345 1.285 1.132.572.807-.072 1.698.43.97-.43 1.859s-.033-.012.021.174c.056.186 2.288 1.426 2.43 1.32.142-.107.263-.201.263-.201l-.143-.403.571-.566.215-.566.928-.325.714-1.778-.214-.484.499-.727 1.072-.243.571-1.294-.143-1.615.857-1.213.143-1.212a273.49 273.49 0 0 1-3.499-1.779M16.39 9.427l.713.485h.572v-.565l-.714-.324-.572.404" style="marker:none" overflow="visible"/>
  <path d="M14.533 8.781l-.358.889h.715l.357-.808c.308-.218.615-.437.928-.647l.715.243 1.427.97.715-.647-.786-.323-.357-.728-1.357-.162-.071-.404-.643.162-.286.566-.357-.728-.142.323.071.809-.571.485m2.57-2.021l.357-.323.715-.162c.489-.238.98-.398 1.499-.566l-.285-.485-.922.133-.435.434-.719.104-.638.3-.31.15-.19.254.928.16m1.214 7.68l.43-.647-.644-.484.214 1.13" style="marker:none" overflow="visible"/>
 </g>
 <path d="M42.975 23.486c0 10.165-8.241 18.406-18.406 18.406S6.163 33.652 6.163 23.486C6.163 13.32 14.404 5.08 24.57 5.08s18.406 8.24 18.406 18.406h0z" fill="none" stroke="url(#e)"/>
 <ellipse cx="24.812" cy="15.082" rx="14.148" ry="9.482" opacity=".422" fill="url(#f)"/>
</svg>
