<svg xmlns="http://www.w3.org/2000/svg" xmlns:xlink="http://www.w3.org/1999/xlink" width="48" height="48">
 <defs>
  <linearGradient id="e">
   <stop offset="0"/>
   <stop offset="1" stop-opacity="0"/>
  </linearGradient>
  <linearGradient id="c">
   <stop offset="0" stop-color="#3b74bc"/>
   <stop offset="1" stop-color="#2d5990"/>
  </linearGradient>
  <linearGradient id="b">
   <stop offset="0" stop-color="#fff"/>
   <stop offset="1" stop-color="#c9c9c9"/>
  </linearGradient>
  <linearGradient id="a">
   <stop offset="0"/>
   <stop offset="1" stop-opacity="0"/>
  </linearGradient>
  <linearGradient id="d">
   <stop offset="0" stop-color="#f4d9b1"/>
   <stop offset="1" stop-color="#df9725"/>
  </linearGradient>
  <radialGradient xlink:href="#a" id="k" cx="31.113" cy="19.009" fx="31.113" fy="19.009" r="8.662" gradientUnits="userSpaceOnUse"/>
  <linearGradient xlink:href="#b" id="j" x1="30.936" y1="29.553" x2="30.936" y2="35.803" gradientUnits="userSpaceOnUse"/>
  <radialGradient xlink:href="#c" id="i" cx="28.09" cy="27.203" fx="28.09" fy="27.203" r="13.565" gradientTransform="matrix(1.29756 0 0 .88483 -8.359 4.94)" gradientUnits="userSpaceOnUse"/>
  <radialGradient xlink:href="#d" id="l" gradientUnits="userSpaceOnUse" cx="29.345" cy="17.064" fx="29.345" fy="17.064" r="9.162" gradientTransform="matrix(.788 0 0 .788 6.221 3.618)"/>
  <radialGradient xlink:href="#a" id="h" gradientUnits="userSpaceOnUse" cx="31.113" cy="19.009" fx="31.113" fy="19.009" r="8.662"/>
  <linearGradient xlink:href="#e" id="m" x1="20.662" y1="35.818" x2="22.627" y2="36.218" gradientUnits="userSpaceOnUse" gradientTransform="rotate(10.462 17.596 32.707)"/>
  <linearGradient xlink:href="#e" id="n" gradientUnits="userSpaceOnUse" x1="22.687" y1="36.39" x2="21.408" y2="35.74" gradientTransform="scale(-1 1) rotate(12.127 -8.984 -261.379)"/>
  <linearGradient xlink:href="#e" id="g" gradientUnits="userSpaceOnUse" gradientTransform="scale(-1 1) rotate(12.127 31.434 -202.343)" x1="22.687" y1="36.39" x2="21.408" y2="35.74"/>
  <linearGradient xlink:href="#b" id="f" gradientUnits="userSpaceOnUse" gradientTransform="translate(-12.418 -7)" x1="30.936" y1="29.553" x2="30.936" y2="35.803"/>
 </defs>
 <g transform="translate(-6.988 -2.826)" color="#000">
  <path d="M22.584 27.035h4.243l-2.475-2.298-.53.707-.531-.53z" style="marker:none" overflow="visible" fill="url(#f)" fill-rule="evenodd"/>
  <path style="marker:none" d="M27.454 32.743c1.23-.58 1.804-2.002 1.804-2.002-.96-4.043-3.976-6.843-3.976-6.843s2.464 6.343 2.172 8.845z" overflow="visible" opacity=".228" fill="url(#g)" fill-rule="evenodd"/>
  <circle style="marker:none" transform="matrix(1.77551 0 0 .58398 -24.253 28.279)" cx="31.113" cy="19.009" r="8.662" overflow="visible" fill="url(#h)" fill-rule="evenodd"/>
  <path d="M25.986 41.636h10.607c3.005 0 5.98-1.102 7.07-4.243 1.036-2.982.178-8.662-6.54-13.258H24.572c-6.718 4.243-7.557 10.045-6.01 13.435 1.575 3.454 4.242 4.066 7.424 4.066z" style="marker:none" overflow="visible" fill="url(#i)" fill-rule="evenodd" stroke="#204a87" stroke-linecap="round" stroke-linejoin="round"/>
  <path d="M26.693 25.726c3.182 2.829 4.596 13.082 4.596 13.082s1.415-10.253 3.89-13.259z" style="marker:none" overflow="visible" fill="url(#j)" fill-rule="evenodd"/>
  <path style="marker:none" d="M28.973 26.787s-2.152 1.66-1.966 3.66c-2.041-1.8-2.1-5.251-2.1-5.251z" overflow="visible" fill="#729fcf" fill-rule="evenodd"/>
  <path style="marker:none" d="M25.915 40.594l10.493-.022c2.64 0 5.253-.968 6.211-3.727.91-2.62-.094-7.608-5.995-11.646L25.1 24.956C19.2 28.683 18.057 33.78 19.437 37c1.381 3.221 3.396 3.572 6.478 3.594z" overflow="visible" opacity=".215" fill="none" stroke="#fff" stroke-linecap="round" stroke-linejoin="round"/>
  <path d="M33.41 26.787s2.152 1.66 1.967 3.66c2.041-1.8 2.1-5.251 2.1-5.251z" style="marker:none" overflow="visible" fill="#729fcf" fill-rule="evenodd"/>
  <circle transform="translate(-.125 3.5)" style="marker:none" cx="31.113" cy="19.009" r="8.662" overflow="visible" fill="url(#k)" fill-rule="evenodd"/>
  <circle style="marker:none" cx="31.113" cy="19.009" r="8.662" overflow="visible" fill="url(#l)" fill-rule="evenodd" stroke="#c17d11" stroke-linecap="round" stroke-linejoin="round"/>
  <circle transform="translate(3.824 2.336) scale(.8771)" style="marker:none" cx="31.113" cy="19.009" r="8.662" overflow="visible" opacity=".196" fill="none" stroke="#fff" stroke-width="1.14" stroke-linecap="round" stroke-linejoin="round"/>
  <path d="M21.852 40.775c-1.248-.545-1.806-1.858-1.806-1.858.841-4.07 3.72-7.046 3.72-7.046s-2.28 6.411-1.914 8.904z" style="marker:none" overflow="visible" opacity=".228" fill="url(#m)" fill-rule="evenodd"/>
  <path style="marker:none" d="M40.757 39.917c1.232-.581 1.805-2.002 1.805-2.002-.96-4.043-3.976-6.843-3.976-6.843s2.464 6.342 2.171 8.845z" overflow="visible" opacity=".228" fill="url(#n)" fill-rule="evenodd"/>
 </g>
</svg>
