<svg xmlns="http://www.w3.org/2000/svg" width="16" height="16">
 <path style="line-height:normal;font-variant-ligatures:normal;font-variant-position:normal;font-variant-caps:normal;font-variant-numeric:normal;font-variant-alternates:normal;font-feature-settings:normal;text-indent:0;text-align:start;text-decoration-line:none;text-decoration-style:solid;text-decoration-color:#000;text-transform:none;text-orientation:mixed;white-space:normal;shape-padding:0;isolation:auto;mix-blend-mode:normal;solid-color:#000;solid-opacity:1" d="M12.5 7A2.508 2.508 0 0 0 10 9.5v1.766c0 .64 1.813.734 2.5.734s2.5-.094 2.5-.734V9.5C15 8.125 13.875 7 12.5 7zm0 1c.834 0 1.5.666 1.5 1.5v1.063c0 .383-1.083.437-1.5.437-.417 0-1.5-.054-1.5-.437V9.5c0-.834.666-1.5 1.5-1.5z" color="#000" font-weight="400" font-family="sans-serif" overflow="visible" fill="#888a85"/>
 <path fill="#edd400" stroke="#c4a000" stroke-linecap="square" stroke-linejoin="round" d="M9.5 10.5h6v5h-6z"/>
 <path d="M10.5 14.5v-3h4" fill="none" stroke="#fff" stroke-linecap="square" opacity=".75"/>
 <path d="M14.5 12.5h-1m1 2h-1" fill="#c4a000" stroke="#c4a000" stroke-linecap="square" opacity=".75"/>
</svg>
