<svg xmlns="http://www.w3.org/2000/svg" width="16" height="16">
 <path d="M15.246 10.5a4.746 4.746 0 1 1-9.492 0 4.746 4.746 0 0 1 9.492 0z" fill="#3465a4"/>
 <path d="M15.308 9.698c-.252 1.908-.935 2.95-1.343 3.571.127.374-.464.623-.727.872-.24.246-.7.159-.629-.242-.042-.363-.293-.692-.2-1.076.143-.479-.166-.929-.171-1.403-.196-.306-.578-.121-.864-.098-.44.007-.668-.485-.747-.855.073-.347.1-.721.36-.992.724-.76 1.284-.465 1.87-.298.216.055.901.166.686-.228-1.178-.612-.845-.422-1.985-.158-.348.375-1.111-1.599-.598-1.56.67-.532 1.486-.5 2.205-.687.151 0 .374.192.091.204-.136.3.343.13.415.04.316.165.457.534.723.761a4.72 4.72 0 0 1 .914 2.15zm-6.512 1.907c-.274-.407-.677-.787-1.188-.836-.3.33-.952.045-.895-.403-.225-.18-.837-.288-.577-.691.273-.359.846-.052 1.116-.42.236-.273.364-.71.771-.77.278-.125.247-.54.584-.579.275-.204.213-.716-.143-.788-.32-.109-.354-.58-.552-.41-.435.324-.716.357-.265.276.383-.254-.297-.578-.396-.163-.702.674-1.264 1.513-1.506 2.464a5.584 5.584 0 0 0-.16.812c.14.423-.024.74.306.955.862 1.422.322 2.292 1.82 3.075-.06.376.43.752.746.475.409-.238.39-.794.727-1.1.268-.326.395-.745.43-1.159 0-.311-.266-.6-.582-.598a.54.54 0 0 1-.236-.14" color="#000" fill="#73d216"/>
 <path d="M10.5 5.754a4.744 4.744 0 0 0-4.627 3.71h.004a4.61 1.264 0 0 0-.041.161 4.61 1.264 0 0 0 4.61 1.264 4.61 1.264 0 0 0 4.609-1.264 4.61 1.264 0 0 0-.043-.16h.115A4.744 4.744 0 0 0 10.5 5.754z" fill="#d3d7cf"/>
 <path d="M8.575 6.187l.092-.084.184-.041a2.82 2.82 0 0 1 .387-.146l-.073-.125-.238.034-.112.112-.186.027-.164.077-.08.039-.05.065.24.042" color="#000" fill="#73d216"/>
 <path d="M15.5 10.5a5 5 0 1 1-10 0 5 5 0 0 1 10 0z" fill="none" stroke="#4e9a06"/>
</svg>
