<svg xmlns="http://www.w3.org/2000/svg" xmlns:xlink="http://www.w3.org/1999/xlink" width="16" height="16">
 <defs>
  <linearGradient id="c">
   <stop offset="0" stop-color="#3465a4"/>
   <stop offset="0" stop-color="#9fbce1"/>
   <stop offset="0" stop-color="#6b95ca"/>
   <stop offset=".75" stop-color="#3d6aa5"/>
   <stop offset="1" stop-color="#386eb4"/>
  </linearGradient>
  <linearGradient id="b">
   <stop offset="0" stop-color="#98a0a9"/>
   <stop offset="1" stop-color="#c3d0dd"/>
  </linearGradient>
  <linearGradient id="a">
   <stop offset="0" stop-color="#b6b6b6"/>
   <stop offset=".5" stop-color="#f2f2f2"/>
   <stop offset=".676" stop-color="#fafafa"/>
   <stop offset=".841" stop-color="#d8d8d8"/>
   <stop offset=".875" stop-color="#f2f2f2"/>
   <stop offset="1" stop-color="#dbdbdb"/>
  </linearGradient>
  <linearGradient xlink:href="#a" id="d" x1="19.648" y1="42.254" x2="20.631" y2="6.776" gradientUnits="userSpaceOnUse" gradientTransform="matrix(.33886 0 0 .33394 -.622 32.328)"/>
  <linearGradient xlink:href="#b" id="e" x1="38.228" y1="13.603" x2="37.535" y2="6.629" gradientUnits="userSpaceOnUse" gradientTransform="matrix(.33886 0 0 .33394 -.502 32.564)"/>
  <linearGradient xlink:href="#c" id="f" x1="9.75" y1="32.284" x2="16.915" y2="39.443" gradientUnits="userSpaceOnUse" gradientTransform="matrix(.33886 0 0 .33394 -.622 32.328)"/>
 </defs>
 <g color="#000">
  <path style="marker:none" d="M5.308 38.506l7.328 7.388c.297.334 1.236.592 1.864 0 .606-.572.466-1.378-.127-1.962l-7.032-7.43c.868-2.376-.889-4.373-3.155-3.945l-.487.439 1.524 1.419.085 1.252-1.138 1.024-1.36-.147-1.4-1.294-.49.477a2.904 2.904 0 0 0 4.387 2.779z" overflow="visible" fill="url(#d)" stroke="#888a85" transform="translate(0 -32)"/>
  <path style="marker:none" d="M7.08 41.893c.322-.271 5.125-5.113 5.125-5.113l1.186-.084 1.864-2.546-1.553-1.363-2.414 2.045v1.169l-4.914 5.03c-.233.23.41 1.113.706.862z" overflow="visible" fill="url(#e)" stroke="#878f9d" transform="translate(0 -32)"/>
  <path style="marker:none" d="M1.665 47.021c.508.557 1.92.81 2.545-.27.273-.47.808-1.788 3.195-3.905.401-.355.826-1.168.466-1.606l-.932-.919c-.381-.417-1.44-.222-1.876.362-1.296 1.748-3.413 3.139-3.89 3.307-.914.321-.81 1.648-.206 2.28z" overflow="visible" fill="url(#f)" stroke="#204a87" transform="translate(0 -32)"/>
 </g>
</svg>
