<svg xmlns="http://www.w3.org/2000/svg" width="16" height="16">
 <defs>
  <radialGradient id="a" cx="11.827" cy="10.476" r="32.665" gradientTransform="matrix(.6099 0 0 .32791 -1.871 -1.53)" gradientUnits="userSpaceOnUse">
   <stop stop-color="#fff" offset="0"/>
   <stop stop-color="#fff" stop-opacity="0" offset="1"/>
  </radialGradient>
 </defs>
 <path d="M15.119 8A7.12 7.12 0 1 1 .879 8a7.12 7.12 0 0 1 14.24 0z" fill="#3465a4"/>
 <path d="M15.211 6.798c-.378 2.861-1.402 4.423-2.014 5.357.19.56-.696.934-1.09 1.307-.362.37-1.052.238-.944-.363-.063-.544-.44-1.038-.3-1.614.215-.718-.249-1.393-.257-2.104-.293-.46-.867-.182-1.295-.148-.66.011-1.002-.727-1.12-1.282.11-.52.149-1.081.537-1.488 1.088-1.141 1.927-.698 2.807-.447.324.083 1.351.25 1.03-.342-1.768-.918-1.268-.632-2.978-.236-.523.561-1.667-2.4-.897-2.34 1.005-.799 2.228-.75 3.306-1.032.227 0 .561.288.138.306-.205.45.514.196.622.06.473.248.685.801 1.084 1.143a7.076 7.076 0 0 1 1.371 3.223zm-9.767 2.86c-.412-.61-1.017-1.18-1.783-1.254-.45.496-1.427.068-1.342-.604-.338-.272-1.256-.433-.866-1.038.41-.537 1.269-.077 1.675-.63.354-.408.545-1.065 1.156-1.155.417-.187.371-.808.877-.867.411-.307.319-1.075-.216-1.182-.48-.164-.53-.87-.827-.616-.654.487-1.074.536-.398.414.575-.38-.445-.866-.594-.244C2.073 3.494 1.23 4.752.867 6.178c-.11.4-.19.807-.239 1.218.21.635-.036 1.11.459 1.432 1.292 2.134.483 3.44 2.73 4.613-.092.565.644 1.128 1.117.713.614-.357.587-1.19 1.091-1.65.403-.49.593-1.117.646-1.738 0-.468-.399-.9-.874-.898a.81.81 0 0 1-.353-.21" fill="#73d216" color="#000"/>
 <ellipse cx="7.322" cy="4.375" rx="6.686" ry="3.595" opacity=".422" fill="url(#a)"/>
 <path d="M5.112 1.53l.138-.125.277-.062c.189-.092.379-.154.58-.22l-.11-.187-.357.051-.169.168-.278.04-.246.117-.12.058-.074.098.359.062" fill="#73d216" color="#000"/>
 <path d="M15.5 8a7.5 7.5 0 1 1-15 0 7.5 7.5 0 0 1 15 0z" fill="none" stroke="#4e9a06"/>
</svg>
