<svg xmlns="http://www.w3.org/2000/svg" xmlns:xlink="http://www.w3.org/1999/xlink" width="48" height="48">
 <defs>
  <linearGradient id="l">
   <stop offset="0" stop-color="#d8dfd6"/>
   <stop offset="1" stop-color="#d8dfd6" stop-opacity="0"/>
  </linearGradient>
  <linearGradient id="j">
   <stop offset="0" stop-color="#9d9d9d"/>
   <stop offset="1" stop-color="#b9b9b9"/>
  </linearGradient>
  <linearGradient id="h">
   <stop offset="0" stop-color="#909090"/>
   <stop offset="1" stop-color="#bebebe" stop-opacity="0"/>
  </linearGradient>
  <linearGradient id="g">
   <stop offset="0" stop-color="#585956"/>
   <stop offset="1" stop-color="#bbbeb8"/>
  </linearGradient>
  <linearGradient id="f">
   <stop offset="0"/>
   <stop offset="1" stop-opacity="0"/>
  </linearGradient>
  <linearGradient id="e">
   <stop offset="0" stop-color="#5b5b97"/>
   <stop offset="1" stop-color="#1b1b43"/>
  </linearGradient>
  <linearGradient id="d">
   <stop offset="0" stop-color="#fff"/>
   <stop offset="1" stop-color="#fcfcff" stop-opacity="0"/>
  </linearGradient>
  <linearGradient id="i">
   <stop offset="0" stop-color="#f9fff5"/>
   <stop offset="1" stop-color="#f9fff5" stop-opacity="0"/>
  </linearGradient>
  <linearGradient id="c">
   <stop offset="0"/>
   <stop offset="1" stop-opacity="0"/>
  </linearGradient>
  <linearGradient id="b">
   <stop offset="0" stop-color="#fff"/>
   <stop offset="1" stop-color="#fff" stop-opacity="0"/>
  </linearGradient>
  <linearGradient id="k">
   <stop offset="0" stop-color="#8f8f8f"/>
   <stop offset="1" stop-color="#494949"/>
  </linearGradient>
  <linearGradient id="a">
   <stop offset="0" stop-color="#dde1d9"/>
   <stop offset="1" stop-color="#cacdc6"/>
  </linearGradient>
  <linearGradient xlink:href="#a" id="q" gradientTransform="matrix(1.12986 0 0 .88506 -1.625 -1.304)" x1="8.612" y1="7.229" x2="34.784" y2="33.34" gradientUnits="userSpaceOnUse"/>
  <linearGradient xlink:href="#b" id="u" gradientTransform="matrix(1.10807 0 0 .90247 1 1)" x1="17.698" y1="13.005" x2="34.975" y2="55.201" gradientUnits="userSpaceOnUse"/>
  <radialGradient xlink:href="#c" id="m" gradientTransform="scale(1.9258 .51926)" cx="12.576" cy="67.502" fx="12.576" fy="67.502" r="8.766" gradientUnits="userSpaceOnUse"/>
  <radialGradient xlink:href="#c" id="o" gradientUnits="userSpaceOnUse" gradientTransform="scale(1.9258 .51926)" cx="12.576" cy="67.502" fx="12.576" fy="67.502" r="8.766"/>
  <radialGradient r="8.766" fy="67.502" fx="12.576" cy="67.502" cx="12.576" gradientTransform="scale(1.9258 .51926)" gradientUnits="userSpaceOnUse" id="w" xlink:href="#c"/>
  <linearGradient gradientUnits="userSpaceOnUse" y2="26.729" x2="17.199" y1="1.654" x1="11.492" gradientTransform="matrix(1.23898 0 0 .89595 .59 -1.332)" id="v" xlink:href="#d"/>
  <linearGradient gradientUnits="userSpaceOnUse" y2="8.867" x2="16.316" y1="32.622" x1="19.15" gradientTransform="matrix(1.17414 0 0 .94543 .722 -1.332)" id="s" xlink:href="#e"/>
  <linearGradient gradientUnits="userSpaceOnUse" y2="162.451" x2="3.707" y1="171.291" x1="3.707" gradientTransform="matrix(5.70516 0 0 .17528 1 -.68)" id="t" xlink:href="#f"/>
  <linearGradient gradientUnits="userSpaceOnUse" y2="64.893" x2="12.128" y1="53.535" x1="12.207" gradientTransform="scale(1.81635 .55056)" id="p" xlink:href="#g"/>
  <linearGradient gradientUnits="userSpaceOnUse" y2="3.845" x2="35.521" y1="3.938" x1="34.301" id="D" xlink:href="#h"/>
  <linearGradient y2="3.845" x2="35.521" y1="3.938" x1="34.301" gradientUnits="userSpaceOnUse" id="E" xlink:href="#h"/>
  <linearGradient y2="3.845" x2="35.521" y1="3.938" x1="34.301" gradientUnits="userSpaceOnUse" id="F" xlink:href="#h"/>
  <linearGradient y2="3.845" x2="35.521" y1="3.938" x1="34.301" gradientUnits="userSpaceOnUse" id="G" xlink:href="#h"/>
  <linearGradient y2="3.845" x2="35.521" y1="3.938" x1="34.301" gradientUnits="userSpaceOnUse" id="H" xlink:href="#h"/>
  <linearGradient y2="74.098" x2="8.649" y1="101.285" x1="13.629" gradientTransform="matrix(2.14363 0 0 .4665 1 -.509)" gradientUnits="userSpaceOnUse" id="C" xlink:href="#i"/>
  <linearGradient gradientUnits="userSpaceOnUse" y2="100.2" x2="8.113" y1="88.509" x1="8.113" gradientTransform="scale(2.30985 .43293)" id="z" xlink:href="#j"/>
  <linearGradient gradientUnits="userSpaceOnUse" y2="31.246" x2="32.537" y1="5.382" x1="10.391" gradientTransform="scale(1.1044 .90547)" id="r" xlink:href="#k"/>
  <linearGradient y2="52.536" x2="18.177" y1="48.643" x1="18.317" gradientTransform="scale(1.12986 .88506)" gradientUnits="userSpaceOnUse" id="x" xlink:href="#a"/>
  <linearGradient gradientUnits="userSpaceOnUse" y2="44.879" x2="-23.886" y1="49.953" x1="-23.886" gradientTransform="scale(1.49287 .66985)" id="n" xlink:href="#l"/>
  <linearGradient y2="100.2" x2="8.113" y1="88.509" x1="8.113" gradientTransform="scale(2.30985 .43293)" gradientUnits="userSpaceOnUse" id="B" xlink:href="#j"/>
  <linearGradient y2="100.2" x2="8.113" y1="88.509" x1="8.113" gradientTransform="scale(2.30985 .43293)" gradientUnits="userSpaceOnUse" id="A" xlink:href="#j"/>
  <linearGradient y2="31.246" x2="32.537" y1="5.382" x1="10.391" gradientTransform="scale(1.1044 .90547)" gradientUnits="userSpaceOnUse" id="y" xlink:href="#k"/>
 </defs>
 <path style="marker:none" d="M41.1 35.051a16.882 4.552 0 1 1-33.764 0 16.882 4.552 0 1 1 33.765 0z" transform="matrix(1 0 0 1.36893 -1.979 -13.617)" color="#000" fill="url(#m)" fill-rule="evenodd" overflow="visible"/>
 <path style="marker:none" d="M31.27 32.92a9.394 3.94 0 1 1-18.79 0 9.394 3.94 0 1 1 18.79 0z" color="#000" fill="#adb0aa" fill-rule="evenodd" stroke="#4b4d4a" overflow="visible"/>
 <path d="M30.708 32.213a8.833 3.704 0 1 1-17.666 0 8.833 3.704 0 1 1 17.666 0z" style="marker:none" color="#000" fill="none" stroke="#7b7f7a" overflow="visible" stroke-width=".94"/>
 <path style="marker:none" d="M-26.264 29.716a9.394 3.94 0 1 1-18.789 0 9.394 3.94 0 1 1 18.789 0z" transform="translate(55.404 3.521) scale(.94027)" color="#000" fill="none" stroke="url(#n)" stroke-width=".681" overflow="visible"/>
 <path d="M25.688 28.766l-.063 1s4.324 3.6 9 4.203c2.338.301 4.754.702 6.75 1.187 1.996.485 3.588 1.12 4.125 1.657.31.31.451.573.5.78a.64.64 0 0 1-.094.563c-.264.416-1.08.968-2.468 1.407C40.66 40.44 35.718 41 28.874 41v1c6.896 0 11.864-.528 14.844-1.469 1.49-.47 2.525-1.015 3.031-1.812.253-.399.357-.889.25-1.344-.107-.455-.385-.885-.781-1.281-.878-.878-2.537-1.407-4.594-1.907-2.057-.5-4.516-.914-6.875-1.218-4.719-.61-9.063-4.203-9.063-4.203z" fill="#d0d0d0" fill-rule="evenodd" stroke="#979797" stroke-width=".4" stroke-linejoin="round"/>
 <path transform="matrix(1 0 0 1.36893 -1.979 -19.021)" d="M41.1 35.051a16.882 4.552 0 1 1-33.764 0 16.882 4.552 0 1 1 33.765 0z" style="marker:none" color="#000" fill="url(#o)" fill-rule="evenodd" overflow="visible"/>
 <rect y="30.704" x="17.472" height="2.74" width="9.04" style="marker:none" color="#000" fill="url(#p)" fill-rule="evenodd" overflow="visible"/>
 <path style="marker:none" d="M7.08 1.696h29.59c.91 0 1.623.583 1.666 1.401l1.332 25.578c.058 1.118-.901 2.02-2.02 2.02H6.102c-1.119 0-2.078-.902-2.02-2.02L5.414 3.097c.04-.773.548-1.401 1.667-1.401z" color="#000" fill="url(#q)" fill-rule="evenodd" stroke="url(#r)" overflow="visible"/>
 <path d="M8.41 4.306L7.169 26.35h27.65L33.485 4.4 8.41 4.306z" fill="url(#s)" fill-rule="evenodd" stroke="#000079" stroke-width=".5" stroke-linejoin="round"/>
 <path d="M6.177 28.736h31.429" fill="none" stroke="url(#t)" stroke-width=".996" stroke-linecap="round" stroke-opacity=".248"/>
 <path d="M6.915 2.706L36.76 2.67c.284 0 .56.237.582.652l1.362 24.803c.058 1.057-.54 1.786-1.598 1.786H6.582c-1.059 0-1.593-.729-1.536-1.786L6.37 3.63c.039-.716.166-.923.545-.924z" style="marker:none" color="#000" fill="none" stroke="url(#u)" stroke-opacity=".701" overflow="visible"/>
 <path d="M8.712 4.746l-.803 17.87c11.045-2.4 11.421-10.492 25.154-13.146l-.161-4.658-24.19-.066z" opacity=".531" fill="url(#v)" fill-rule="evenodd"/>
 <path transform="matrix(1.2644 0 0 1.29126 -6.216 -4)" d="M41.1 35.051a16.882 4.552 0 1 1-33.764 0 16.882 4.552 0 1 1 33.765 0z" style="marker:none" color="#000" fill="url(#w)" fill-rule="evenodd" overflow="visible"/>
 <path d="M6.462 36.817h31.003c1.119 0 .977.272 1.092.613l2.834 8.425c.115.342.027.613-1.092.613H3.628c-1.12 0-1.208-.271-1.093-.613L5.37 37.43c.115-.341-.027-.613 1.092-.613z" style="marker:none" color="#000" fill="url(#x)" fill-rule="evenodd" stroke="url(#y)" overflow="visible"/>
 <path d="M6.392 38.83l-1.768 5.126h5.48l.53-2.033h14.85l.55 2.075H32.2l-1.68-5.169H6.392z" fill="#7a7d77" fill-rule="evenodd"/>
 <path d="M11.076 42.276l-.442 1.68h14.761l-.442-1.768-13.877.088z" fill="#777874" fill-rule="evenodd"/>
 <path style="marker:none" d="M37.593 38.83l1.68 5.037-5.48-.088-1.504-4.861 5.304-.089z" color="#000" fill="#777a75" fill-rule="evenodd" overflow="visible"/>
 <path d="M37.593 38.299l1.68 5.038-5.48-.088-1.504-4.862 5.304-.088z" style="marker:none" color="#000" fill="url(#z)" fill-rule="evenodd" overflow="visible"/>
 <path d="M6.392 38.21l-1.768 5.127h5.48l.53-2.033h14.85l.55 2.075H32.2l-1.68-5.169H6.392z" fill="url(#A)" fill-rule="evenodd"/>
 <path style="marker:none" d="M11.076 41.746l-.442 1.68h14.761l-.442-1.768-13.877.088z" color="#000" fill="url(#B)" fill-rule="evenodd" overflow="visible"/>
 <path style="marker:none" d="M6.128 37.578h31.826l2.637 8.093H3.33l2.798-8.093z" color="#000" fill="none" stroke="url(#C)" stroke-width=".5" stroke-linejoin="round" overflow="visible"/>
 <path transform="matrix(1.33124 0 0 .65845 -10.42 2.854)" d="M35.62 3.938a.84.84 0 1 1-1.679 0 .84.84 0 1 1 1.68 0z" style="marker:none" color="#000" fill="url(#D)" fill-rule="evenodd" overflow="visible"/>
 <path style="marker:none" d="M35.62 3.938a.84.84 0 1 1-1.679 0 .84.84 0 1 1 1.68 0z" transform="matrix(1.33124 0 0 .65845 -10.306 4.96)" color="#000" fill="url(#E)" fill-rule="evenodd" overflow="visible"/>
 <path transform="matrix(1.33124 0 0 .65845 -10.192 6.96)" d="M35.62 3.938a.84.84 0 1 1-1.679 0 .84.84 0 1 1 1.68 0z" style="marker:none" color="#000" fill="url(#F)" fill-rule="evenodd" overflow="visible"/>
 <path style="marker:none" d="M35.62 3.938a.84.84 0 1 1-1.679 0 .84.84 0 1 1 1.68 0z" transform="matrix(1.33124 0 0 .65845 -10.079 8.96)" color="#000" fill="url(#G)" fill-rule="evenodd" overflow="visible"/>
 <path transform="matrix(1.33124 0 0 .65845 -9.965 10.96)" d="M35.62 3.938a.84.84 0 1 1-1.679 0 .84.84 0 1 1 1.68 0z" style="marker:none" color="#000" fill="url(#H)" fill-rule="evenodd" overflow="visible"/>
 <path d="M20 27.318h.282c.083 0 .148.018.192.056.045.037.068.09.068.158 0 .07-.023.123-.068.16a.295.295 0 0 1-.192.056h-.112v.228H20v-.658m.17.123v.184h.094a.111.111 0 0 0 .076-.024.087.087 0 0 0 .027-.069.09.09 0 0 0-.027-.068.111.111 0 0 0-.076-.023h-.094m.792-.012a.141.141 0 0 0-.12.057.265.265 0 0 0-.043.161c0 .07.014.123.043.161a.141.141 0 0 0 .12.058.14.14 0 0 0 .12-.058.265.265 0 0 0 .044-.16.265.265 0 0 0-.043-.162.142.142 0 0 0-.121-.057m0-.123c.106 0 .189.03.249.09.06.061.09.145.09.251a.34.34 0 0 1-.09.25.334.334 0 0 1-.249.092.335.335 0 0 1-.249-.091.34.34 0 0 1-.09-.25c0-.107.03-.19.09-.251s.143-.091.249-.091m.466.012h.19l.24.451v-.451h.16v.658h-.19l-.239-.452v.452h-.16v-.658m.662 0h.186l.15.234.15-.234h.186l-.25.38v.278h-.17v-.277l-.252-.381" font-size=".903" font-weight="700" fill="#4a4a4a" font-family="Bitstream Vera Sans"/>
</svg>
