<svg xmlns="http://www.w3.org/2000/svg" xmlns:xlink="http://www.w3.org/1999/xlink" width="16" height="16">
 <defs>
  <linearGradient id="b">
   <stop offset="0" stop-color="#fff"/>
   <stop offset="1" stop-color="#b8b8b8"/>
  </linearGradient>
  <linearGradient id="a">
   <stop offset="0" stop-color="#9cbcde"/>
   <stop offset="1" stop-color="#204a87"/>
  </linearGradient>
  <radialGradient xlink:href="#a" id="c" cx="26.544" cy="28.459" fx="26.544" fy="28.459" r="22.376" gradientUnits="userSpaceOnUse" gradientTransform="matrix(.42055 .00205 -.00221 .46517 -2.494 28.444)"/>
  <radialGradient xlink:href="#b" id="d" cx="-19.516" cy="16.856" fx="-19.516" fy="16.856" r="8.754" gradientTransform="matrix(4.446 0 0 6.8665 67.25 -104.668)" gradientUnits="userSpaceOnUse"/>
 </defs>
 <g transform="translate(0 -32)">
  <ellipse cx="8" cy="40" rx="7.429" ry="7.531" fill="url(#c)" stroke="#204a87" stroke-width=".939"/>
  <ellipse cx="8" cy="40.001" rx="6.388" ry="6.476" opacity=".96" fill="none" stroke="#fff"/>
  <path xlink:href="#text2215" style="line-height:125%;text-align:start" d="M-20.25 5.865c-1.059 0-2.142.125-3.275.346-1.133.22-2.398.543-3.768 1.006a.135.135 0 0 0-.092.127V12.5a.135.135 0 0 0 .207.113c1.143-.719 2.236-1.253 3.283-1.611a.135.135 0 0 0 .002 0c1.049-.369 2.03-.555 2.924-.555.95 0 1.653.213 2.164.627a.135.135 0 0 0 .002 0c.51.402.762.972.762 1.707 0 .48-.125.944-.418 1.43a.135.135 0 0 0-.002.002c-.283.487-.744 1.028-1.379 1.592l-1.092.937a.135.135 0 0 0-.002.002c-1.201 1.08-1.987 1.997-2.373 2.725-.382.71-.578 1.52-.578 2.437v.813a.135.135 0 0 0 .135.135h6.094a.135.135 0 0 0 .135-.135v-.75c0-.468.13-.887.357-1.276a.135.135 0 0 0 0-.002c.222-.39.712-.946 1.473-1.62l1.062-.938a.135.135 0 0 0 .002-.002c1.067-.983 1.827-1.89 2.277-2.756.45-.874.704-1.874.704-2.969 0-2.126-.766-3.748-2.24-4.857-1.476-1.121-3.595-1.684-6.364-1.684zm-3.514 19.156a.135.135 0 0 0-.12.135V31a.135.135 0 0 0 .134.135h6.094a.135.135 0 0 0 .135-.135v-5.844a.135.135 0 0 0-.135-.135h-6.094a.135.135 0 0 0-.014 0z" transform="matrix(.31176 0 0 .31047 14.503 34.257)" font-weight="700" font-size="34.153" font-family="Bitstream Vera Sans" fill="url(#d)"/>
 </g>
</svg>
