<svg xmlns="http://www.w3.org/2000/svg" xmlns:xlink="http://www.w3.org/1999/xlink" width="16" height="16">
 <defs>
  <linearGradient id="a">
   <stop offset="0"/>
   <stop offset="1" stop-opacity="0"/>
  </linearGradient>
  <radialGradient xlink:href="#a" id="k" gradientUnits="userSpaceOnUse" gradientTransform="matrix(.02204 0 0 .01617 -1.044 37.813)" cx="605.714" cy="486.648" fx="605.714" fy="486.648" r="117.143"/>
  <linearGradient id="c">
   <stop offset="0" stop-color="#fff"/>
   <stop offset="1" stop-color="#fff" stop-opacity="0"/>
  </linearGradient>
  <linearGradient id="b">
   <stop offset="0" stop-color="#dfdfdf"/>
   <stop offset="1" stop-color="silver"/>
  </linearGradient>
  <linearGradient gradientTransform="matrix(.41374 0 0 .35083 -21.725 31.123)" gradientUnits="userSpaceOnUse" y2="40.857" x2="72.857" y1="9.714" x1="64.571" id="i" xlink:href="#b"/>
  <linearGradient gradientTransform="matrix(.3726 0 0 .33135 -2.03 31.32)" gradientUnits="userSpaceOnUse" y2=".504" x2="19.324" y1="11.312" x1="19.363" id="j" xlink:href="#c"/>
  <linearGradient id="d" gradientUnits="userSpaceOnUse" x1="14.997" y1="11.188" x2="32.511" y2="34.307">
   <stop offset="0" stop-color="#ebebeb"/>
   <stop offset=".5" stop-color="#fff"/>
   <stop offset="1" stop-color="#ebebeb"/>
  </linearGradient>
  <linearGradient id="e" gradientUnits="userSpaceOnUse" x1="12.274" y1="32.416" x2="35.391" y2="14.203">
   <stop offset="0" stop-color="#fbfbfb"/>
   <stop offset=".5" stop-color="#b6b6b6"/>
   <stop offset="1" stop-color="#e4e4e4"/>
  </linearGradient>
  <linearGradient id="f">
   <stop offset="0" stop-color="#fff" stop-opacity=".327"/>
   <stop offset="1" stop-color="#fff" stop-opacity=".604"/>
  </linearGradient>
  <linearGradient id="g">
   <stop offset="0" stop-color="#fff"/>
   <stop offset="1" stop-color="#fff" stop-opacity="0"/>
  </linearGradient>
  <linearGradient y2="14.203" x2="35.391" y1="32.416" x1="12.274" gradientUnits="userSpaceOnUse" id="h">
   <stop offset="0" stop-color="#fff307"/>
   <stop offset=".5" stop-color="#166eff"/>
   <stop offset="1" stop-color="#fff" stop-opacity="0"/>
  </linearGradient>
  <linearGradient y2="34.307" x2="32.511" y1="11.188" x1="14.997" gradientTransform="matrix(.26884 0 0 .26882 4.07 36.286)" gradientUnits="userSpaceOnUse" id="l" xlink:href="#d"/>
  <linearGradient y2="14.203" x2="35.391" y1="32.416" x1="12.274" gradientTransform="translate(3.665 35.896) scale(.28571)" gradientUnits="userSpaceOnUse" id="m" xlink:href="#e"/>
  <linearGradient y2="28" x2="29" y1="14.625" x1="21.125" gradientTransform="matrix(.28228 0 0 .28226 3.748 36.262)" gradientUnits="userSpaceOnUse" id="n" xlink:href="#f"/>
  <linearGradient y2="28" x2="29" y1="14.625" x1="21.125" gradientTransform="matrix(.28228 0 0 .28226 3.748 36.262)" gradientUnits="userSpaceOnUse" id="o" xlink:href="#f"/>
  <linearGradient y2="54.698" x2="48.799" y1="3.61" x1="10.502" gradientTransform="matrix(.20374 0 0 .20373 5.562 37.402)" gradientUnits="userSpaceOnUse" id="p" xlink:href="#g"/>
  <radialGradient r="21.333" fy="27.569" fx="37.751" cy="27.569" cx="37.751" gradientTransform="matrix(.17384 .19623 -.1602 .1419 9.364 33.17)" gradientUnits="userSpaceOnUse" id="q" xlink:href="#h"/>
 </defs>
 <g transform="translate(0 -32)">
  <path d="M.68 34.526l1.671-2.084h9.663l1.772 2.133z" style="marker:none" color="#000" overflow="visible" fill="#6b6c69" fill-rule="evenodd" stroke="#606060" stroke-linecap="round" stroke-linejoin="round"/>
  <rect ry=".501" rx=".586" y="34.531" x=".499" height="10.926" width="13.476" style="marker:none" color="#000" overflow="visible" fill="url(#i)" fill-rule="evenodd" stroke="#606060"/>
  <path d="M13.638 39.564v5.14c0 .149-.152.268-.341.268H3.988l.02-5.408h9.63z" style="marker:none" color="#000" overflow="visible" fill="#a40000" fill-rule="evenodd"/>
  <path d="M3.51 34.99v9.915" style="marker:none" color="#000" overflow="visible" fill="none" stroke="#606060" stroke-dasharray="1,1"/>
  <path style="marker:none" d="M13.6 39.584v-4.308a.335.335 0 0 0-.34-.332H4l.02 4.64h9.58z" color="#000" overflow="visible" fill="#f0f0f0" fill-rule="evenodd"/>
  <path d="M3.005 33.482h8.485l1.586 1.647v9.184c0 .096-.086.173-.194.173H1.688c-.108 0-.194-.077-.194-.173V35.13z" style="marker:none" color="#000" overflow="visible" opacity=".626" fill="none" stroke="url(#j)"/>
  <path style="marker:none" d="M12.236 43.743v3.928c1.134.008 2.743-.88 2.743-1.964s-1.266-1.964-2.743-1.964z" color="#000" overflow="visible" opacity=".402" fill="url(#k)"/>
  <path d="M10.522 37.791a4.693 4.693 0 0 0-4.704 4.704 4.693 4.693 0 0 0 4.704 4.705 4.693 4.693 0 0 0 4.705-4.705 4.693 4.693 0 0 0-4.705-4.704zm0 5.833c-.618 0-1.129-.51-1.129-1.129 0-.618.511-1.129 1.13-1.129.618 0 1.129.511 1.129 1.13 0 .618-.511 1.128-1.13 1.128z" fill="url(#l)"/>
  <path d="M10.522 37.496c-2.771 0-5 2.228-5 5 0 2.77 2.229 5 5 5 2.772 0 5-2.23 5-5 0-2.772-2.228-5-5-5zm0 6.2c-.657 0-1.2-.543-1.2-1.2 0-.658.543-1.2 1.2-1.2.658 0 1.2.542 1.2 1.2 0 .657-.542 1.2-1.2 1.2z" fill="url(#m)" stroke="gray"/>
  <path d="M10.522 40.214a2.283 2.283 0 0 0 0 4.563 2.283 2.283 0 0 0 0-4.563zm0 3.526a1.252 1.252 0 0 1-1.244-1.245c0-.681.563-1.244 1.244-1.244.682 0 1.245.563 1.245 1.244 0 .682-.563 1.245-1.245 1.245z" opacity=".11"/>
  <path d="M11.781 38.13l-.812 3.16c.254.068.457.225.595.443l2.799-1.705a4.264 4.264 0 0 0-2.582-1.898z" fill="url(#n)"/>
  <path d="M8.933 46.733l1.07-3.083a1.003 1.003 0 0 1-.558-.49l-2.929 1.47a4.263 4.263 0 0 0 2.417 2.103z" fill="url(#o)"/>
  <path d="M10.522 38.462a4.023 4.023 0 0 0-4.033 4.033 4.023 4.023 0 0 0 4.033 4.034 4.023 4.023 0 0 0 4.034-4.034 4.023 4.023 0 0 0-4.034-4.033z" opacity=".546" fill="none" stroke="url(#p)"/>
  <path d="M10.522 38.228a4.256 4.256 0 0 0-4.267 4.267 4.256 4.256 0 0 0 4.267 4.268 4.256 4.256 0 0 0 4.268-4.268 4.256 4.256 0 0 0-4.268-4.267zm0 5.292a1.03 1.03 0 0 1-1.024-1.025c0-.56.464-1.024 1.024-1.024.561 0 1.025.464 1.025 1.024a1.03 1.03 0 0 1-1.025 1.025z" opacity=".114" fill="url(#q)"/>
  <ellipse cx="10.522" cy="42.495" rx="1.146" ry="1.154" fill="none" stroke="#fff"/>
 </g>
</svg>
