<svg xmlns="http://www.w3.org/2000/svg" xmlns:xlink="http://www.w3.org/1999/xlink" width="16" height="16">
 <defs>
  <linearGradient id="b">
   <stop offset="0" stop-color="#babdb6"/>
   <stop offset="1" stop-color="#d3d7cf"/>
  </linearGradient>
  <linearGradient id="a">
   <stop offset="0" stop-color="#fff" stop-opacity=".5"/>
   <stop offset="1" stop-color="#fff" stop-opacity="0"/>
  </linearGradient>
  <linearGradient xlink:href="#a" id="g" x1="6.25" y1="8.796" x2="11.925" y2="8.796" gradientUnits="userSpaceOnUse"/>
  <linearGradient xlink:href="#b" id="f" gradientUnits="userSpaceOnUse" x1="10.677" y1="8.562" x2="5.51" y2="8.578"/>
  <linearGradient id="e">
   <stop stop-opacity=".439" stop-color="#fff" offset="0"/>
   <stop stop-color="#fff" offset=".5"/>
   <stop stop-opacity="0" stop-color="#fff" offset="1"/>
  </linearGradient>
  <linearGradient id="c">
   <stop stop-color="#73d216" offset="0"/>
   <stop stop-color="#9ced4b" offset=".256"/>
   <stop stop-color="#64b813" offset=".594"/>
   <stop stop-color="#8eea34" offset="1"/>
  </linearGradient>
  <linearGradient gradientTransform="matrix(1.08541 0 0 1.1 -2.299 -3.55)" gradientUnits="userSpaceOnUse" y2="11.641" x2="15.977" y1="11.641" x1="2.978" id="i" xlink:href="#c"/>
  <linearGradient id="d">
   <stop stop-color="#fff" offset="0"/>
   <stop stop-color="#222" offset=".342"/>
   <stop stop-opacity=".471" stop-color="#fff" offset="1"/>
  </linearGradient>
  <linearGradient gradientTransform="matrix(1.1 0 0 1.125 .32 1.293)" gradientUnits="userSpaceOnUse" y2="5.5" x2="11.5" y1="5.5" x1="1.5" id="h" xlink:href="#d"/>
  <linearGradient gradientTransform="matrix(1.1 0 0 1.12782 -2.417 -3.83)" y2="8.38" x2="10.948" y1="8.38" x1="5.922" gradientUnits="userSpaceOnUse" id="j" xlink:href="#e"/>
 </defs>
 <g transform="translate(-3 -1.017)" stroke-linejoin="round">
  <path d="M3.5 2.499v10.97c0 .553 2.015 1 4.5 1s4.5-.447 4.5-1V2.5z" fill="url(#f)" stroke="#888a85"/>
  <path d="M3.5 6.53c0 .552 2.015 1 4.5 1s4.5-.448 4.5-1m-9 3.966c0 .553 2.015 1 4.5 1s4.5-.447 4.5-1" fill="none" stroke="#fff"/>
  <path d="M3.5 2.499v11.018c0 .552 2.015 1 4.5 1s4.5-.448 4.5-1V2.499" fill="none" stroke="#888a85"/>
  <path d="M3.5 2.499v10.986c0 .553 2.015 1 4.5 1s4.5-.447 4.5-1V2.5z" fill="url(#g)" stroke="#888a85"/>
  <ellipse ry="1" rx="4.5" cy="2.5" cx="8" fill="#fff" stroke="#888a85"/>
  <path d="M3.5 5.53c0 .553 2.015 1 4.5 1s4.5-.447 4.5-1m-9 3.965c0 .553 2.015 1 4.5 1s4.5-.447 4.5-1" fill="none" stroke="#888a85"/>
 </g>
 <g stroke-width="1.335" color="#000">
  <path style="marker:none" display="block" overflow="visible" d="M1.97 2.98h11v9h-11z" opacity=".462" fill="url(#h)" fill-rule="evenodd" transform="matrix(.77095 0 0 .7277 4.321 5.676)"/>
  <path style="marker:none" display="block" overflow="visible" d="M1.5 2.5h13v11h-13z" fill="url(#i)" fill-rule="evenodd" stroke="#4e9a06" transform="matrix(.77095 0 0 .7277 4.321 5.676)"/>
  <path style="marker:none" display="block" overflow="visible" d="M2.805 3.85H13.5v8.3H2.805z" opacity=".629" fill="none" stroke="url(#j)" transform="matrix(.77095 0 0 .7277 4.321 5.676)"/>
 </g>
</svg>
