<svg xmlns="http://www.w3.org/2000/svg" xmlns:xlink="http://www.w3.org/1999/xlink" width="16" height="16">
 <defs>
  <linearGradient gradientTransform="translate(-5.028 -7.209) scale(1.24194)" y2="39.685" x2="34.534" y1="12.285" x1="14.463" gradientUnits="userSpaceOnUse" id="b" xlink:href="#a"/>
  <linearGradient id="a">
   <stop offset="0" stop-color="#c9c9c9"/>
   <stop offset=".25" stop-color="#f8f8f8"/>
   <stop offset=".5" stop-color="#e2e2e2"/>
   <stop offset=".75" stop-color="#b0b0b0"/>
   <stop offset="1" stop-color="#c9c9c9"/>
  </linearGradient>
 </defs>
 <g transform="translate(-.297 .34) scale(.33994)" stroke-width="1.789" color="#000">
  <path style="marker:none" d="M23.25.469c-.465.032-.918.104-1.375.156h-.031L20.75 6.594a16.267 16.267 0 0 0-4.969 2.031l-4.906-3.531a22.367 22.367 0 0 0-3.594 3.531l3.407 4.969a16.468 16.468 0 0 0-2.25 5.281v.031l-5.938.938a22.483 22.483 0 0 0-.156 2.718c0 .75.02 1.49.094 2.22l5.937 1.062a16.269 16.269 0 0 0 2.344 5.687l-3.531 4.844a22.36 22.36 0 0 0 3.437 3.406l5-3.437a16.128 16.128 0 0 0 5.813 2.281l.937 5.906c.666.06 1.35.063 2.031.063.963 0 1.882-.037 2.813-.157l1.125-6.03a16.394 16.394 0 0 0 5.531-2.532l4.813 3.5a22.44 22.44 0 0 0 3.374-3.594l-3.5-5.062a16.163 16.163 0 0 0 1.938-5.375l5.906-.938c.052-.616.063-1.214.063-1.843 0-1.095-.127-2.168-.282-3.22l-6-1.093a16.318 16.318 0 0 0-2.218-4.813L41.5 8.595a22.386 22.386 0 0 0-3.719-3.625l-5.093 3.5c-1.464-.866-3.04-1.53-4.75-1.906L27 .625a22.21 22.21 0 0 0-2.594-.156c-.238 0-.482-.008-.718 0-.116.003-.23-.007-.344 0-.031.002-.063-.002-.094 0zm.813 15.187c.114-.006.228 0 .343 0 3.7 0 6.719 3.02 6.719 6.719 0 3.7-3.02 6.688-6.719 6.688a6.68 6.68 0 0 1-6.687-6.688c0-3.584 2.804-6.54 6.343-6.719z" overflow="visible" fill="url(#b)" stroke="gray" stroke-width="2.942"/>
  <circle style="marker:none" transform="translate(8.695 6.464) scale(.66843)" cx="23.511" cy="23.782" r="12.728" overflow="visible" opacity=".648" fill="none" stroke="#fff" stroke-width="4.401"/>
  <path d="M22.663 2.83l-.828 5.453c-1.577.359-4.478 1.457-5.812 2.285l-4.409-3.29c-1.173.91-1.253.972-2.191 2.123l3.187 4.727c-.915 1.398-2.013 3.89-2.408 5.67l-5.586.941c-.096.784-.05 2.463.015 3.109l5.336.96c.373 1.825 1.77 4.76 2.76 6.264L9.355 35.53c.894 1.11 1.073 1.212 2.187 2.103l4.511-3.305c1.546.986 4.614 2.185 6.484 2.525l.74 5.385c.59.054 2.218.204 3.04.098l.83-5.605c1.775-.442 4.843-1.701 6.292-2.732l4.506 3.256c1.104-.939 1.114-1.08 1.986-2.24l-3.34-4.747c.839-1.448 1.923-4.28 2.217-5.989l5.468-.907c.046-.545.048-2.065-.088-2.996l-5.571-.96c-.416-1.537-1.843-4.304-2.707-5.592l3.54-4.458c-.968-1.184-1.328-1.346-2.544-2.275l-4.664 3.34c-1.295-.766-3.877-1.933-5.39-2.266l-.824-5.336c-.755-.088-2.932-.049-3.364 0z" style="marker:none" overflow="visible" opacity=".347" fill="none" stroke="#fff" stroke-width="2.942"/>
 </g>
</svg>
