<svg xmlns="http://www.w3.org/2000/svg" xmlns:xlink="http://www.w3.org/1999/xlink" height="16" width="16">
 <defs>
  <linearGradient id="a">
   <stop offset="0" stop-color="#204a87"/>
   <stop offset="1" stop-color="#204a87" stop-opacity="0"/>
  </linearGradient>
  <linearGradient xlink:href="#a" id="b" x1="4.516" y1="4.505" x2="7.025" y2="7.029" gradientUnits="userSpaceOnUse"/>
  <linearGradient xlink:href="#a" id="c" gradientUnits="userSpaceOnUse" x1="4.516" y1="4.505" x2="7.025" y2="7.029" gradientTransform="matrix(-1 0 0 1 15.993 0)"/>
  <linearGradient xlink:href="#a" id="d" gradientUnits="userSpaceOnUse" x1="4.516" y1="4.505" x2="7.025" y2="7.029" gradientTransform="matrix(1 0 0 -1 0 16.002)"/>
  <linearGradient xlink:href="#a" id="e" gradientUnits="userSpaceOnUse" gradientTransform="rotate(-180 7.996 8.001)" x1="4.516" y1="4.505" x2="7.025" y2="7.029"/>
 </defs>
 <rect width="15" height="15" x=".5" y=".5" fill="#eeeeec" stroke="#babdb6" stroke-linecap="square"/>
 <rect y="1.5" x="1.5" height="13" width="13" fill="none" stroke="#fff" stroke-linecap="square"/>
 <path style="line-height:normal;font-variant-ligatures:normal;font-variant-position:normal;font-variant-caps:normal;font-variant-numeric:normal;font-variant-alternates:normal;font-feature-settings:normal;text-indent:0;text-align:start;text-decoration-line:none;text-decoration-style:solid;text-decoration-color:#000;text-transform:none;text-orientation:mixed;white-space:normal;shape-padding:0;isolation:auto;mix-blend-mode:normal;solid-color:#000;solid-opacity:1" d="M1.983 2C2.01 3.166 2 4.333 2 5.5a.5.5 0 0 0 .854.354l.646-.647 1.646 1.647A.5.5 0 0 0 5.5 7h1a.5.5 0 0 0 .5-.5v-1a.5.5 0 0 0-.146-.354L5.207 3.5l.647-.646A.5.5 0 0 0 5.5 2z" color="#000" font-weight="400" font-family="sans-serif" overflow="visible" fill="url(#b)"/>
 <path d="M14.01 2c-.028 1.166-.017 2.333-.017 3.5a.5.5 0 0 1-.854.354l-.646-.647-1.647 1.647a.5.5 0 0 1-.353.146h-1a.5.5 0 0 1-.5-.5v-1a.5.5 0 0 1 .146-.354L10.786 3.5l-.647-.646A.5.5 0 0 1 10.493 2z" style="line-height:normal;font-variant-ligatures:normal;font-variant-position:normal;font-variant-caps:normal;font-variant-numeric:normal;font-variant-alternates:normal;font-feature-settings:normal;text-indent:0;text-align:start;text-decoration-line:none;text-decoration-style:solid;text-decoration-color:#000;text-transform:none;text-orientation:mixed;white-space:normal;shape-padding:0;isolation:auto;mix-blend-mode:normal;solid-color:#000;solid-opacity:1" color="#000" font-weight="400" font-family="sans-serif" overflow="visible" fill="url(#c)"/>
 <path d="M1.983 14.002c.027-1.166.017-2.333.017-3.5a.5.5 0 0 1 .854-.353l.646.646 1.646-1.646a.5.5 0 0 1 .354-.147h1a.5.5 0 0 1 .5.5v1a.5.5 0 0 1-.146.354l-1.647 1.646.647.647a.5.5 0 0 1-.354.853z" style="line-height:normal;font-variant-ligatures:normal;font-variant-position:normal;font-variant-caps:normal;font-variant-numeric:normal;font-variant-alternates:normal;font-feature-settings:normal;text-indent:0;text-align:start;text-decoration-line:none;text-decoration-style:solid;text-decoration-color:#000;text-transform:none;text-orientation:mixed;white-space:normal;shape-padding:0;isolation:auto;mix-blend-mode:normal;solid-color:#000;solid-opacity:1" color="#000" font-weight="400" font-family="sans-serif" overflow="visible" fill="url(#d)"/>
 <path style="line-height:normal;font-variant-ligatures:normal;font-variant-position:normal;font-variant-caps:normal;font-variant-numeric:normal;font-variant-alternates:normal;font-feature-settings:normal;text-indent:0;text-align:start;text-decoration-line:none;text-decoration-style:solid;text-decoration-color:#000;text-transform:none;text-orientation:mixed;white-space:normal;shape-padding:0;isolation:auto;mix-blend-mode:normal;solid-color:#000;solid-opacity:1" d="M14.01 14.002c-.028-1.166-.017-2.333-.017-3.5a.5.5 0 0 0-.854-.353l-.646.646-1.647-1.646a.5.5 0 0 0-.353-.147h-1a.5.5 0 0 0-.5.5v1a.5.5 0 0 0 .146.354l1.647 1.646-.647.647a.5.5 0 0 0 .354.853z" color="#000" font-weight="400" font-family="sans-serif" overflow="visible" fill="url(#e)"/>
</svg>
