<svg xmlns="http://www.w3.org/2000/svg" xmlns:xlink="http://www.w3.org/1999/xlink" width="16" height="16">
 <defs>
  <linearGradient id="b">
   <stop offset="0" stop-color="#fff"/>
   <stop offset="1" stop-color="#fff" stop-opacity="0"/>
  </linearGradient>
  <linearGradient id="a">
   <stop offset="0" stop-color="#fcaf3e"/>
   <stop offset="1" stop-color="#d37f03"/>
  </linearGradient>
  <linearGradient xlink:href="#b" id="c" x1="26.503" y1="10.027" x2="28.786" y2="52.807" gradientUnits="userSpaceOnUse" gradientTransform="matrix(.35846 0 0 .35677 -.714 -.298)"/>
 </defs>
 <path d="M8 15.5L.5 8 8 .5 15.5 8z" fill="#3465a4" stroke="#204a87" stroke-linecap="round" stroke-linejoin="round"/>
 <path d="M3.556 9.13l.215-.298a3.544 3.544 0 0 0 .577.188l-.002.459a4.047 4.054 0 0 0 .379.06l.14-.438a3.67 3.676 0 0 0 .605 0l.14.437a4.044 4.052 0 0 0 .378-.06l-.001-.458c.199-.046.392-.11.576-.188l.268.373a4.21 4.21 0 0 0 .34-.175l-.142-.436a3.592 3.592 0 0 0 .49-.357l.37.27a4.119 4.119 0 0 0 .27-.27l-.27-.37a3.625 3.625 0 0 0 .356-.491l.435.142a4.006 4.014 0 0 0 .174-.342l-.371-.268a3.573 3.58 0 0 0 .187-.578l.458.002a4.026 4.034 0 0 0 .06-.38l-.437-.14a3.62 3.626 0 0 0 0-.607l.436-.14a3.934 3.934 0 0 0-.06-.38l-.457.003a3.515 3.515 0 0 0-.187-.578l.372-.268A4.221 4.221 0 0 0 8.68 3.5l-.436.143a3.608 3.615 0 0 0-.356-.49l.27-.37a3.608 3.608 0 0 0-.254-.256l-5.468 5.48.292.293.087-.064a3.612 3.62 0 0 0 .49.357l-.07.214.32.322zm5.668 1.468a4.242 4.242 0 0 1 2.928-4.036l-.646-.647-.015.006-.053-.074-.41-.41a5.698 5.71 0 0 0-.394.205l.2.614a5.07 5.08 0 0 0-.69.503l-.52-.382a5.64 5.64 0 0 0-.38.383l.38.52a5.063 5.072 0 0 0-.501.692l-.613-.203c-.088.157-.17.317-.245.482l.523.377a4.99 4.99 0 0 0-.263.814l-.645-.003a5.594 5.594 0 0 0-.083.534l.614.198a5.14 5.15 0 0 0 0 .854l-.614.197a5.668 5.679 0 0 0 .083.534l.645-.002a5.037 5.037 0 0 0 .263.813l-.523.378a5.644 5.655 0 0 0 .13.27l1.106-1.106a4.224 4.232 0 0 1-.277-1.511z" opacity=".5" fill="#fff"/>
 <path d="M8.017 14.32L1.752 8.01l6.24-6.31 6.3 6.31z" opacity=".473" fill="none" stroke="url(#c)"/>
</svg>
