<svg xmlns="http://www.w3.org/2000/svg" xmlns:xlink="http://www.w3.org/1999/xlink" width="16" height="16">
 <defs>
  <linearGradient id="a">
   <stop offset="0"/>
   <stop offset="1" stop-opacity="0"/>
  </linearGradient>
  <linearGradient id="b">
   <stop offset="0" stop-opacity="0"/>
   <stop offset=".5"/>
   <stop offset="1" stop-opacity="0"/>
  </linearGradient>
  <linearGradient id="d">
   <stop offset="0" stop-color="#729fcf"/>
   <stop offset="1" stop-color="#3465a4"/>
  </linearGradient>
  <linearGradient id="c">
   <stop offset="0" stop-color="#eeeeec"/>
   <stop offset="1" stop-color="#fff"/>
  </linearGradient>
  <linearGradient xlink:href="#c" id="e" x1="36.669" y1="36.383" x2="10.304" y2="7.493" gradientUnits="userSpaceOnUse" gradientTransform="matrix(.36457 0 0 .34892 -.76 -.387)"/>
  <linearGradient xlink:href="#d" id="f" x1="18.562" y1="12.998" x2="30.936" y2="33.681" gradientUnits="userSpaceOnUse" gradientTransform="matrix(.36457 0 0 .34892 -1.124 -.736)"/>
 </defs>
 <rect width="14.951" height="14.999" x=".512" y=".489" rx=".364" ry=".349" fill="url(#e)" stroke="#888a85" stroke-width="1.025" stroke-linecap="round" stroke-linejoin="round"/>
 <path style="line-height:125%;text-align:start" d="M13.459 13.224c-.969-.082-1.07-.081-1.292-1.268L10.57 2.753h-.305l-5.063 8.13c-1.342 2.162-1.66 2.21-2.34 2.34v.391h3.325v-.39c-.866-.082-1.002-.032-1.002-.439 0-.309.05-.455.34-1.008l.968-1.641h3.738l.34 1.934c.017.146.033.292.033.423 0 .617-.09.633-1.176.73v.391h4.03v-.39M6.85 9.354l2.548-4.227.747 4.227H6.85" font-size="46.601" font-style="italic" font-weight="400" font-family="Nimbus Roman No9 L" fill="url(#f)"/>
 <path d="M3.029 2.729a.171.162 0 1 0-.343 0 .171.162 0 1 0 .343 0zm0 .649a.171.162 0 1 0-.343 0 .171.162 0 1 0 .343 0zm0 1.297a.171.162 0 1 0-.343 0 .171.162 0 1 0 .343 0zm0 .648a.171.162 0 1 0-.343 0 .171.162 0 1 0 .343 0zm0 .65a.171.162 0 1 0-.343 0 .171.162 0 1 0 .343 0zm0 .648a.171.162 0 1 0-.343 0 .171.162 0 1 0 .343 0zm0 .648a.171.162 0 1 0-.343 0 .171.162 0 1 0 .343 0zm0 .649a.171.162 0 1 0-.343 0 .171.162 0 1 0 .343 0zm0 .649a.171.162 0 1 0-.343 0 .171.162 0 1 0 .343 0zm0 .648a.171.162 0 1 0-.343 0 .171.162 0 1 0 .343 0zm0 .649a.171.162 0 1 0-.343 0 .171.162 0 1 0 .343 0zm0 .649a.171.162 0 1 0-.343 0 .171.162 0 1 0 .343 0zm0 .648a.171.162 0 1 0-.343 0 .171.162 0 1 0 .343 0zm0 .649a.171.162 0 1 0-.343 0 .171.162 0 1 0 .343 0zm0-7.784a.171.162 0 1 0-.343 0 .171.162 0 1 0 .343 0zm0 8.432a.171.162 0 1 0-.343 0 .171.162 0 1 0 .343 0zm0 .65a.171.162 0 1 0-.343 0 .171.162 0 1 0 .343 0zm0 .648a.171.162 0 1 0-.343 0 .171.162 0 1 0 .343 0zM2 2.729a.171.162 0 1 0 .343 0 .171.162 0 1 0-.343 0zm2.057 0a.171.162 0 1 0 .343 0 .171.162 0 1 0-.343 0zm.686 0a.171.162 0 1 0 .343 0 .171.162 0 1 0-.343 0zm.686 0a.171.162 0 1 0 .342 0 .171.162 0 1 0-.342 0zm.685 0a.171.162 0 1 0 .343 0 .171.162 0 1 0-.343 0zm.686 0a.171.162 0 1 0 .343 0 .171.162 0 1 0-.343 0zm.686 0a.171.162 0 1 0 .343 0 .171.162 0 1 0-.343 0zm.685 0a.171.162 0 1 0 .343 0 .171.162 0 1 0-.343 0zm.686 0a.171.162 0 1 0 .343 0 .171.162 0 1 0-.343 0zm.686 0a.171.162 0 1 0 .343 0 .171.162 0 1 0-.343 0zm.686 0a.171.162 0 1 0 .342 0 .171.162 0 1 0-.342 0zm.685 0a.171.162 0 1 0 .343 0 .171.162 0 1 0-.343 0zm.686 0a.171.162 0 1 0 .343 0 .171.162 0 1 0-.343 0zm-8.229 0a.171.162 0 1 0 .343 0 .171.162 0 1 0-.343 0zm8.915 0a.171.162 0 1 0 .343 0 .171.162 0 1 0-.343 0zm.685 0a.171.162 0 1 0 .343 0 .171.162 0 1 0-.343 0zm.686 0a.171.162 0 1 0 .343 0 .171.162 0 1 0-.343 0zM2.686 2.08a.171.162 0 1 0 .343 0 .171.162 0 1 0-.343 0z" fill="#888a85"/>
 <rect width="12.975" height="12.975" x="1.512" y="1.512" rx="0" ry="0" fill="none" stroke="#fff" stroke-width="1.025"/>
</svg>
