<svg xmlns="http://www.w3.org/2000/svg" width="16" height="16">
 <defs>
  <linearGradient id="b">
   <stop stop-color="#fff" offset="0"/>
   <stop stop-opacity="0" stop-color="#fff" offset="1"/>
  </linearGradient>
  <linearGradient id="a">
   <stop stop-color="#fcaf3e" offset="0"/>
   <stop stop-color="#d37f03" offset="1"/>
  </linearGradient>
 </defs>
 <rect x=".5" y=".5" width="13" height="14" fill="#eeeeec" stroke="#888a85" stroke-linecap="round" stroke-linejoin="round"/>
 <rect height="12" width="11" y="1.5" x="1.5" fill="none" stroke="#fff" stroke-linecap="square"/>
 <path d="M11 15.5L6.5 11 11 6.5l4.5 4.5z" fill="#3465a4" stroke="#204a87" stroke-linecap="round" stroke-linejoin="round"/>
 <path d="M7.98 11.745l.147-.202a2.409 2.409 0 0 0 .392.127l-.001.312a2.75 2.755 0 0 0 .257.041l.095-.298a2.494 2.498 0 0 0 .412 0l.095.297a2.748 2.754 0 0 0 .257-.04l-.001-.312c.135-.03.266-.074.391-.127l.183.253a2.861 2.861 0 0 0 .231-.119l-.097-.296a2.441 2.441 0 0 0 .333-.243l.252.184a2.8 2.8 0 0 0 .183-.184l-.183-.251a2.464 2.464 0 0 0 .242-.334l.295.097a2.722 2.728 0 0 0 .118-.233l-.252-.182a2.428 2.433 0 0 0 .127-.393l.312.002a2.736 2.742 0 0 0 .04-.259l-.297-.095a2.46 2.464 0 0 0 0-.412l.297-.095a2.67 2.67 0 0 0-.04-.258l-.312.001a2.39 2.39 0 0 0-.127-.392l.253-.183a2.864 2.864 0 0 0-.118-.232l-.296.097a2.452 2.457 0 0 0-.242-.333l.183-.251a2.452 2.452 0 0 0-.173-.174L7.22 10.982l.199.2.059-.044a2.455 2.46 0 0 0 .333.242l-.048.146.218.218zm3.853.998A2.883 2.883 0 0 1 13.823 10l-.44-.44-.01.004-.036-.05-.278-.279a3.872 3.88 0 0 0-.268.14l.137.417a3.446 3.452 0 0 0-.47.342l-.353-.26a3.833 3.833 0 0 0-.259.26l.259.354a3.44 3.447 0 0 0-.34.47l-.417-.138c-.06.107-.116.216-.167.328l.356.256a3.391 3.391 0 0 0-.18.553l-.438-.002c-.024.12-.043.24-.056.363l.417.135a3.493 3.5 0 0 0 0 .58l-.417.134a3.852 3.86 0 0 0 .056.363l.439-.002a3.423 3.423 0 0 0 .179.553l-.356.257a3.836 3.843 0 0 0 .09.183l.75-.751a2.87 2.876 0 0 1-.188-1.027z" opacity=".5" fill="#fff"/>
</svg>
