<svg xmlns="http://www.w3.org/2000/svg" width="16" height="16">
 <defs>
  <radialGradient gradientUnits="userSpaceOnUse" gradientTransform="matrix(.4066 0 0 .2186 4.118 4.264)" r="32.665" cy="10.476" cx="11.827" id="a">
   <stop offset="0" stop-color="#fff"/>
   <stop offset="1" stop-opacity="0" stop-color="#fff"/>
  </radialGradient>
 </defs>
 <rect x=".5" y=".5" width="13" height="14" fill="#eeeeec" stroke="#888a85" stroke-linecap="round" stroke-linejoin="round"/>
 <g fill="none">
  <rect x="1.5" y="1.5" width="11" height="12" stroke="#fff" stroke-linecap="square"/>
  <path d="M3 3.5h8m-8 2h4m1 0h3m-8 2h8m-8 2h3m-3 2h6M7 9.51h4" stroke="#888a85"/>
 </g>
 <path d="M15.5 10.5a5 5 0 1 1-10 0 5 5 0 0 1 10 0z" fill="#729fcf" stroke="#3465a4"/>
 <path d="M15.162 9.726c-.245 1.85-.907 2.86-1.303 3.463.123.363-.45.604-.705.846-.233.239-.679.154-.61-.235-.04-.352-.284-.67-.194-1.043.139-.465-.161-.901-.166-1.361-.19-.297-.56-.117-.838-.095-.427.007-.648-.47-.724-.83.07-.336.097-.699.349-.961.702-.738 1.245-.451 1.813-.29.21.054.874.161.666-.22-1.143-.594-.82-.41-1.925-.154-.338.364-1.078-1.55-.58-1.513.65-.516 1.44-.485 2.138-.666.147 0 .363.186.088.198-.132.29.333.126.403.038.306.16.443.518.701.739a4.578 4.578 0 0 1 .887 2.085zm-6.316 1.85c-.266-.395-.657-.764-1.152-.811-.291.32-.924.043-.869-.391-.218-.175-.811-.28-.56-.67.266-.349.821-.05 1.083-.408.23-.265.353-.688.748-.747.27-.12.24-.523.566-.561.267-.198.207-.695-.138-.764-.31-.106-.344-.563-.536-.398-.422.314-.694.346-.257.268.372-.247-.288-.561-.384-.159-.68.654-1.226 1.468-1.46 2.39a5.416 5.416 0 0 0-.156.788c.136.41-.023.717.297.926.836 1.38.313 2.223 1.765 2.982-.058.365.417.73.724.461.397-.23.378-.77.705-1.067.26-.316.383-.722.417-1.124 0-.302-.258-.582-.564-.58a.524.524 0 0 1-.23-.136" color="#000" fill="#fff"/>
 <ellipse cx="10.247" cy="8.201" rx="4.457" ry="2.396" opacity=".422" fill="url(#a)"/>
 <path d="M15.5 10.5a5 5 0 1 1-10 0 5 5 0 0 1 10 0z" fill="none" stroke="#204a87"/>
 <path d="M15.5 10.5a5 5 0 1 1-10 0 5 5 0 0 1 10 0z" fill="none" stroke="#3465a4"/>
</svg>
