<svg xmlns="http://www.w3.org/2000/svg" xmlns:xlink="http://www.w3.org/1999/xlink" height="22" width="22" version="1.0">
 <defs>
  <linearGradient id="d">
   <stop offset="0" stop-color="#3a7304"/>
   <stop offset="1" stop-color="#3a7304" stop-opacity="0"/>
  </linearGradient>
  <linearGradient id="c">
   <stop offset="0" stop-color="#fff"/>
   <stop offset="1" stop-color="#fff" stop-opacity="0"/>
  </linearGradient>
  <linearGradient id="a">
   <stop offset="0"/>
   <stop offset="1" stop-opacity="0"/>
  </linearGradient>
  <radialGradient gradientUnits="userSpaceOnUse" gradientTransform="matrix(1 0 0 .53672 0 16.873)" r="15.645" fy="36.421" fx="24.837" cy="36.421" cx="24.837" id="e" xlink:href="#a"/>
  <linearGradient xlink:href="#b" id="f" x1="17.683" y1="12.81" x2="20.835" y2="18.02" gradientUnits="userSpaceOnUse" gradientTransform="matrix(.55282 0 0 .64574 -3.548 -2.398)" spreadMethod="pad"/>
  <linearGradient xlink:href="#c" id="h" x1="18.592" y1="15.327" x2="8.821" y2="19.408" gradientUnits="userSpaceOnUse" gradientTransform="matrix(.55282 0 0 .64574 -3.548 -2.398)"/>
  <linearGradient xlink:href="#d" id="g" x1="12.106" y1="24.59" x2="8.358" y2="28.479" gradientUnits="userSpaceOnUse" gradientTransform="matrix(.47172 0 0 .55101 -1.343 -1.611)"/>
  <linearGradient id="b">
   <stop offset="0" stop-color="#73d216"/>
   <stop offset="1" stop-color="#4e9a06"/>
  </linearGradient>
 </defs>
 <g color="#000">
  <path transform="matrix(.70185 0 0 -.47637 -6.412 35.35)" d="M40.482 36.421a15.645 8.397 0 1 1-31.29 0 15.645 8.397 0 1 1 31.29 0z" style="marker:none" opacity=".141" fill="url(#e)" fill-rule="evenodd" overflow="visible"/>
  <path style="marker:none" d="M8 2.5c-3.412.278-6.805 2.045-7.5 8.188 1.524-6.452 8.713-7.394 10-.188H6l7.5 8 7.5-8h-4.5c.06-5.134-4.023-8.364-8.5-8z" fill="url(#f)" stroke="url(#g)" display="block" overflow="visible"/>
  <path d="M1.5 7c5.63-6.293 14.663-3.676 14 4.5h3l-5 5.5-5-5.5h3C12.067 7.589 6.762.849 1.5 7z" style="marker:none" opacity=".418" fill="none" stroke="url(#h)" display="block" overflow="visible"/>
 </g>
</svg>
