<svg xmlns="http://www.w3.org/2000/svg" xmlns:xlink="http://www.w3.org/1999/xlink" width="22" height="22">
 <defs>
  <linearGradient id="e">
   <stop offset="0" stop-color="#6194cb"/>
   <stop offset="1" stop-color="#729fcf"/>
  </linearGradient>
  <linearGradient id="d">
   <stop offset="0" stop-color="#424242"/>
   <stop offset="1" stop-color="#777"/>
  </linearGradient>
  <linearGradient id="c">
   <stop offset="0" stop-color="#fff"/>
   <stop offset="1" stop-color="#fff" stop-opacity="0"/>
  </linearGradient>
  <linearGradient id="a">
   <stop offset="0" stop-color="#202020"/>
   <stop offset="1" stop-color="#b9b9b9"/>
  </linearGradient>
  <radialGradient xlink:href="#a" id="f" gradientUnits="userSpaceOnUse" gradientTransform="matrix(.55459 -.01432 .09341 .62356 7.495 11.028)" cx="20.706" cy="37.518" fx="20.706" fy="37.518" r="30.905"/>
  <linearGradient id="b">
   <stop offset="0" stop-color="#fff" stop-opacity=".876"/>
   <stop offset="1" stop-color="#fffffe" stop-opacity="0"/>
  </linearGradient>
  <linearGradient xlink:href="#b" id="h" gradientUnits="userSpaceOnUse" gradientTransform="matrix(.79735 0 0 .37121 9.126 13.98)" x1="6.23" y1="13.773" x2="9.898" y2="66.834"/>
  <linearGradient gradientUnits="userSpaceOnUse" y2="46.689" x2="12.854" y1="32.567" x1="13.036" gradientTransform="matrix(.69256 0 0 .42738 8.91 14.068)" id="j" xlink:href="#c"/>
  <linearGradient gradientUnits="userSpaceOnUse" y2="6.18" x2="15.515" y1="31.368" x1="18.113" id="g" xlink:href="#d" gradientTransform="matrix(.52567 0 0 .52359 9.373 14.759)"/>
  <linearGradient xlink:href="#e" id="i" x1="22.176" y1="36.988" x2="22.065" y2="32.05" gradientUnits="userSpaceOnUse" gradientTransform="matrix(.52567 0 0 .52359 9.373 14.759)"/>
 </defs>
 <path d="M11.75 35.015c.011.218.241.436.46.436h16.468a.44.44 0 0 0 .415-.436L28.6 20.759c-.011-.218-.241-.436-.46-.436h-6.976c-.255 0-.657-.163-.737-.58l-.322-1.661c-.074-.387-.463-.544-.682-.544h-7.769a.44.44 0 0 0-.415.436z" fill="url(#f)" stroke="url(#g)" stroke-linecap="round" stroke-linejoin="round" transform="translate(-10.738 -15.289)"/>
 <path style="marker:none" d="M12.778 35.018c.009.164-.095.273-.262.218-.167-.054-.282-.163-.29-.327l-.499-16.566c-.008-.164.087-.263.251-.263l7.17-.025c.163 0 .49.158.595.693l.301 1.474c-.224-.244-.22-.251-.335-.606l-.213-.66c-.116-.38-.367-.435-.532-.435h-6.362c-.164 0-.268.11-.26.273l.494 16.279z" color="#000" display="block" overflow="visible" opacity=".451" fill="url(#h)" transform="translate(-10.738 -15.289)"/>
 <path d="M17.395 5.641c0-.053-.077-.135-.136-.135h-6.997s.516.32 1.222.324l5.917.039c0-.115.082-.232-.006-.228z" fill="#fff" fill-opacity=".508"/>
 <path style="marker:none" d="M30.286 35.446c.6-.023 1.031-.574 1.076-1.215a851.97 851.97 0 0 1 .872-11.467c.038-.13-.088-.259-.253-.259H13.914l-.973 11.799c-.042.516-.245.945-.815 1.143z" color="#000" display="block" fill="url(#i)" stroke="#3465a4" stroke-linejoin="round" transform="translate(-10.738 -15.289)"/>
 <path d="M14.842 23.482l16.368.034-.827 10.37c-.045.56-.237.747-.984.747-.984 0-14.207-.017-15.635-.017.123-.168.176-.517.176-.526z" opacity=".466" fill="none" stroke="url(#j)" stroke-linecap="round" transform="translate(-10.738 -15.289)"/>
 <path d="M3.692 7.964l-.613 8.19s4.36-2.171 9.812-2.171c5.451 0 8.177-6.019 8.177-6.019z" fill="#fff" fill-opacity=".089" fill-rule="evenodd"/>
</svg>
