<svg xmlns="http://www.w3.org/2000/svg" width="22" height="22">
 <defs>
  <radialGradient id="a" cx="11.827" cy="10.476" r="32.665" gradientTransform="matrix(.85386 0 0 .45907 -2.82 -2.342)" gradientUnits="userSpaceOnUse">
   <stop stop-color="#fff" offset="0"/>
   <stop stop-color="#fff" stop-opacity="0" offset="1"/>
  </radialGradient>
 </defs>
 <path d="M21 11A10.001 10.001 0 1 1 .997 11 10.001 10.001 0 0 1 21 11z" fill="#3465a4"/>
 <path d="M21.095 9.317c-.529 4.006-1.962 6.192-2.82 7.5.267.784-.974 1.308-1.525 1.83-.507.518-1.473.333-1.322-.508-.088-.762-.616-1.454-.42-2.26.301-1.005-.348-1.95-.36-2.946-.41-.644-1.213-.254-1.813-.207-.924.016-1.402-1.018-1.568-1.795.154-.728.209-1.513.752-2.083 1.523-1.597 2.698-.977 3.93-.626.454.117 1.891.35 1.442-.478-2.475-1.286-1.775-.885-4.17-.33-.731.785-2.333-3.36-1.255-3.277 1.407-1.118 3.12-1.05 4.628-1.445.318 0 .786.404.194.429-.287.63.72.274.87.084.663.347.96 1.121 1.518 1.6a9.906 9.906 0 0 1 1.92 4.512zM7.422 13.321c-.577-.854-1.424-1.652-2.497-1.755-.63.694-1.997.095-1.878-.846-.474-.38-1.759-.606-1.213-1.453.574-.752 1.777-.108 2.345-.882.496-.571.763-1.491 1.619-1.617.583-.262.519-1.131 1.227-1.214.576-.43.447-1.505-.302-1.655-.672-.23-.742-1.218-1.158-.862-.915.682-1.503.75-.557.58.805-.533-.623-1.213-.832-.342-1.474 1.417-2.654 3.178-3.162 5.174-.154.56-.266 1.13-.335 1.705.294.89-.05 1.554.643 2.005 1.809 2.988.676 4.816 3.822 6.458-.129.791.901 1.58 1.564.999.86-.5.821-1.666 1.527-2.31.564-.686.83-1.564.904-2.434 0-.655-.558-1.26-1.223-1.257a1.134 1.134 0 0 1-.494-.294" color="#000" fill="#73d216"/>
 <ellipse cx="10.051" cy="5.925" rx="9.36" ry="5.033" opacity=".422" fill="url(#a)"/>
 <path d="M6.957 1.942l.193-.175.388-.087c.264-.129.53-.215.812-.308l-.154-.262-.5.072-.237.235-.389.056-.344.164-.168.081-.104.137.503.087" color="#000" fill="#73d216"/>
 <path d="M21.5 11a10.5 10.5 0 1 1-21 0 10.5 10.5 0 0 1 21 0z" fill="none" stroke="#4e9a06"/>
</svg>
