<svg xmlns="http://www.w3.org/2000/svg" xmlns:xlink="http://www.w3.org/1999/xlink" width="48" height="48">
 <defs>
  <linearGradient id="c">
   <stop offset="0" stop-color="#fff"/>
   <stop offset="1" stop-color="#b8b8b8"/>
  </linearGradient>
  <linearGradient id="a">
   <stop offset="0"/>
   <stop offset="1" stop-opacity="0"/>
  </linearGradient>
  <radialGradient xlink:href="#a" id="d" cx="25.125" cy="36.75" fx="25.125" fy="36.75" r="15.75" gradientTransform="matrix(1 0 0 .59524 0 14.875)" gradientUnits="userSpaceOnUse"/>
  <linearGradient id="b">
   <stop offset="0" stop-color="#9cbcde"/>
   <stop offset="1" stop-color="#204a87"/>
  </linearGradient>
  <radialGradient xlink:href="#b" id="e" cx="26.544" cy="28.459" fx="26.544" fy="28.459" r="22.376" gradientUnits="userSpaceOnUse" gradientTransform="matrix(1.23834 .00595 -.0065 1.35127 -6.993 -9.745)"/>
  <radialGradient xlink:href="#c" id="f" cx="-19.516" cy="16.856" fx="-19.516" fy="16.856" r="8.754" gradientTransform="matrix(4.446 0 0 6.8665 67.25 -104.668)" gradientUnits="userSpaceOnUse"/>
 </defs>
 <path style="marker:none" d="M40.875 36.75a15.75 9.375 0 1 1-31.5 0 15.75 9.375 0 1 1 31.5 0z" transform="matrix(1.1738 0 0 .6 -5.004 20.325)" opacity=".631" color="#000" fill="url(#d)" fill-rule="evenodd" overflow="visible"/>
 <path d="M45.785 23.826a21.876 21.876 0 1 1-43.752 0 21.876 21.876 0 1 1 43.752 0z" transform="matrix(.93844 0 0 .93868 1.564 1.634)" fill="url(#e)" stroke="#204a87"/>
 <path transform="matrix(.8551 0 0 .85521 3.555 3.625)" d="M45.785 23.826a21.876 21.876 0 1 1-43.752 0 21.876 21.876 0 1 1 43.752 0z" fill="none" stroke="#fff" stroke-width="3.031" opacity=".96"/>
 <path xlink:href="#text2215" style="text-align:start;line-height:125%" d="M-20.25 5.875c-1.059 0-2.148.123-3.281.344a28.99 28.99 0 0 0-3.75 1 .135.135 0 0 0-.032 0 .135.135 0 0 0-.03.031.135.135 0 0 0-.032.031.135.135 0 0 0 0 .032.135.135 0 0 0 0 .03V12.5a.135.135 0 0 0 0 .031.135.135 0 0 0 0 .031c.009.013.02.023.031.032.009.012.02.022.032.031h.125c1.142-.719 2.233-1.267 3.28-1.625 1.049-.369 2.044-.562 2.938-.563.95 0 1.645.211 2.157.626.508.402.78.983.78 1.718 0 .48-.143.952-.437 1.438-.283.487-.74 1.03-1.375 1.594l-1.093.937c-1.202 1.08-1.99 1.991-2.375 2.719-.384.711-.563 1.52-.563 2.437v.813a.135.135 0 0 0 0 .031.135.135 0 0 0 0 .031c.009.012.02.023.031.032a.13.13 0 0 0 .032.03c.01.002.02.002.03 0a.086.086 0 0 0 .032 0h6.094a.08.08 0 0 0 .031 0 .08.08 0 0 0 .031 0 .135.135 0 0 0 .032-.03.135.135 0 0 0 .03-.032.135.135 0 0 0 0-.031.135.135 0 0 0 0-.031v-.75c0-.468.15-.893.376-1.282.222-.39.708-.95 1.468-1.625l1.063-.937c1.067-.982 1.83-1.885 2.281-2.75.45-.874.688-1.873.688-2.969 0-2.126-.744-3.734-2.219-4.844-1.475-1.12-3.606-1.687-6.375-1.687zm-3.563 19.156a.135.135 0 0 0-.03.032.135.135 0 0 0-.032.03.135.135 0 0 0 0 .032.135.135 0 0 0 0 .031V31a.135.135 0 0 0 0 .031.135.135 0 0 0 0 .032c.009.012.02.022.031.03.009.013.02.023.032.032h6.218a.135.135 0 0 0 .032-.031.135.135 0 0 0 .03-.032.135.135 0 0 0 0-.03.135.135 0 0 0 0-.032v-5.844a.135.135 0 0 0 0-.031.135.135 0 0 0 0-.031.135.135 0 0 0-.03-.032.135.135 0 0 0-.032-.03.135.135 0 0 0-.031 0 .135.135 0 0 0-.031 0h-6.094a.135.135 0 0 0-.031 0 .135.135 0 0 0-.032 0z" transform="matrix(.8499 0 0 .8352 41.73 8.548)" font-size="34.153" font-weight="700" fill="url(#f)" stroke="#fff" stroke-width="1.099" stroke-opacity=".786" font-family="Bitstream Vera Sans"/>
</svg>
