<svg xmlns="http://www.w3.org/2000/svg" xmlns:xlink="http://www.w3.org/1999/xlink" width="22" height="22">
 <defs>
  <radialGradient xlink:href="#a" id="m" gradientUnits="userSpaceOnUse" gradientTransform="matrix(-2.77439 0 0 1.9697 112.762 -872.885)" cx="605.714" cy="486.648" fx="605.714" fy="486.648" r="117.143"/>
  <linearGradient id="a">
   <stop offset="0"/>
   <stop offset="1" stop-opacity="0"/>
  </linearGradient>
  <radialGradient xlink:href="#a" id="l" gradientUnits="userSpaceOnUse" gradientTransform="matrix(2.77439 0 0 1.9697 -1891.633 -872.885)" cx="605.714" cy="486.648" fx="605.714" fy="486.648" r="117.143"/>
  <linearGradient id="b">
   <stop offset="0" stop-opacity="0"/>
   <stop offset=".5"/>
   <stop offset="1" stop-opacity="0"/>
  </linearGradient>
  <linearGradient xlink:href="#b" id="k" gradientUnits="userSpaceOnUse" gradientTransform="matrix(2.77439 0 0 1.9697 -1892.179 -872.885)" x1="302.857" y1="366.648" x2="302.857" y2="609.505"/>
  <linearGradient id="i">
   <stop offset="0" stop-color="#fff"/>
   <stop offset="1" stop-color="#fff" stop-opacity="0"/>
  </linearGradient>
  <linearGradient id="h">
   <stop offset="0" stop-color="#fff" stop-opacity=".103"/>
   <stop offset="1" stop-color="#fff" stop-opacity="0"/>
  </linearGradient>
  <linearGradient id="f">
   <stop offset="0" stop-color="#b5c051"/>
   <stop offset="1" stop-color="#858e3f"/>
  </linearGradient>
  <linearGradient id="g">
   <stop offset="0" stop-color="#616c08"/>
   <stop offset="1" stop-color="#495106"/>
  </linearGradient>
  <linearGradient id="e">
   <stop offset="0" stop-color="#575955"/>
   <stop offset="1" stop-color="#7c7e79"/>
  </linearGradient>
  <linearGradient id="d">
   <stop offset="0" stop-color="#babdb6"/>
   <stop offset="1" stop-color="#f1f5ec"/>
  </linearGradient>
  <linearGradient id="j">
   <stop offset="0"/>
   <stop offset="1" stop-opacity="0"/>
  </linearGradient>
  <linearGradient id="c">
   <stop offset="0" stop-color="#eff3f4"/>
   <stop offset="1" stop-color="#939596"/>
  </linearGradient>
  <linearGradient xlink:href="#c" id="s" gradientTransform="matrix(.69807 0 0 .21118 14.117 -15.838)" x1="-4.638" y1="104.388" x2="-4.524" y2="110.614" gradientUnits="userSpaceOnUse"/>
  <linearGradient gradientUnits="userSpaceOnUse" y2="6.89" x2="60.686" y1="6.89" x1="55.208" gradientTransform="matrix(.34144 0 0 .56282 -.73 .567)" id="u" xlink:href="#d"/>
  <linearGradient gradientUnits="userSpaceOnUse" y2="21.17" x2="19.738" y1="21.17" x1="2.933" gradientTransform="matrix(1.06844 0 0 .1825 -1.11 .605)" id="t" xlink:href="#e"/>
  <linearGradient xlink:href="#f" id="n" gradientTransform="matrix(.5535 0 0 .40406 -.251 -1.115)" x1="10.861" y1="33.139" x2="30.587" y2="37.721" gradientUnits="userSpaceOnUse"/>
  <linearGradient gradientUnits="userSpaceOnUse" y2="52.625" x2="19.673" y1="23.114" x1="19.347" gradientTransform="matrix(.5535 0 0 .40406 -.251 -1.115)" id="o" xlink:href="#g"/>
  <linearGradient y2="48.805" x2="25.312" y1="25.335" x1="17.574" gradientTransform="matrix(.5535 0 0 .40406 -.214 -1.189)" gradientUnits="userSpaceOnUse" id="q" xlink:href="#h"/>
  <linearGradient gradientUnits="userSpaceOnUse" y2="23.601" x2="19.858" y1="38.963" x1="19.977" gradientTransform="matrix(.54596 0 0 .36319 .277 -.048)" id="r" xlink:href="#i"/>
  <linearGradient xlink:href="#j" id="p" gradientUnits="userSpaceOnUse" gradientTransform="matrix(1.64204 0 0 .1635 -1.807 -.995)" x1="7.374" y1="27.377" x2="7.529" y2="69.461"/>
 </defs>
 <g transform="matrix(.01068 0 0 .00924 20.629 18.841)" color="#000" stroke-width="2.123">
  <rect style="marker:none" width="1339.633" height="478.357" x="-1559.252" y="-150.697" overflow="visible" opacity=".402" fill="url(#k)"/>
  <path style="marker:none" d="M-219.619-150.68v478.33c142.874.9 345.4-107.17 345.4-239.196S-33.655-150.68-219.619-150.68z" overflow="visible" opacity=".402" fill="url(#l)"/>
  <path d="M-1559.252-150.68v478.33c-142.875.9-345.4-107.17-345.4-239.196s159.436-239.134 345.4-239.134z" style="marker:none" overflow="visible" opacity=".402" fill="url(#m)"/>
 </g>
 <path d="M1.556 6.87c-.021-.016.815 11.983.815 11.986.079 1.198.737 1.636 1.474 1.638.026 0 13.827-.001 14.121-.003 1.242-.004 1.546-.767 1.628-1.6.006-.017.842-12.004.848-12.02z" fill="url(#n)" fill-rule="evenodd" stroke="url(#o)"/>
 <path d="M19.88 8.01L2.972 8c12.739.299 15.241 1.714 16.794 1.641l.114-1.63z" style="marker:none" display="block" color="#000" fill="url(#p)"/>
 <g fill="#fff" fill-opacity=".488" fill-rule="evenodd" stroke-width="2.123">
  <path d="M10.944 12.422l2.514.195.973-2.416-1.15.825s-.494-1.174-.848-1.269c-.354-.094-1.867-.062-1.867-.062.48.12.854.965.86.974.15.25.57 1.092.57 1.092z"/>
  <path style="marker:none" d="M11.256 10.75l-.832 1.62-1.711-1.1s.775-1.496 1.387-1.496c.616 0 .892.543 1.156.976z" overflow="visible" color="#000" fill-opacity=".31"/>
  <path d="M12.48 14.599l-1.62 1.977 1.546 2.04.028-1.285s1.14.11 1.401-.152c.262-.262 1.35-1.583 1.35-1.583-.35.359-1.25.253-1.262.253a85.27 85.27 0 0 1-1.424-.025l-.019-1.226z"/>
  <path style="marker:none" d="M14.002 15.623l-.935-1.562 1.805-.932s.857 1.448.543 1.983c-.316.54-.914.502-1.413.51z" overflow="visible" color="#000" fill-opacity=".31"/>
  <path d="M9.646 14.484l-.8-2.152-2.333.168.958.713s-.661.953-.57 1.315c.092.362.611 1.862.611 1.862-.13-.488.409-1.232.415-1.242.14-.256.73-1.248.73-1.248z"/>
  <path style="marker:none" d="M8.046 15.352l1.792-.047-.109 2.062s-1.657.036-1.955-.509c-.3-.55.03-1.06.272-1.506z" overflow="visible" color="#000" fill-opacity=".31"/>
 </g>
 <path d="M19.384 10.047c-2.508 1.109-5.942 2.218-8.743 2.242-3.079.025-5.347 1.5-7.646 2.633.092 1.368.193 2.323.318 3.856.062.764.3.746 1.384.746 4.29 0 9.918.006 13.304.006.83 0 .735-.595.78-1.164.216-2.757.411-5.553.603-8.32z" fill="url(#q)" fill-rule="evenodd"/>
 <path d="M2.617 8.519c-.024 0 .377 5.596.694 9.521.082 1.043.04 1.418.894 1.418 5.252 0 12.87.078 13.144.036 1.356-.004 1.25-.105 1.326-1.405.038-.347.69-9.531.684-9.531-4.46 0-11.232-.025-16.742-.04z" fill="none" stroke="url(#r)" stroke-opacity=".286"/>
 <path d="M3.144 1.5c-.498.002-.914.012-1.141.45-.04.077-1.241 3.167-1.299 3.285-.495 1.009-.038 2.28.917 2.271.181-.001 18.828.008 19.117 0 .813-.022.917-1.493.567-2.155-.02-.038-1.645-3.443-1.686-3.503-.192-.27-.62-.387-.94-.376-.063.002-15.473.029-15.535.029z" fill="url(#s)" fill-rule="evenodd" stroke="#4d5506"/>
 <path style="marker:none" d="M3.62 2.967c-.443-.005-.472-.018-.571.233l-.987 2.427c-.124.301.05.381.48.375.152-.002 16.801 0 17.043 0 .344 0 .446-.09.368-.304a118.383 118.383 0 0 0-1.357-2.567c-.16-.193-.133-.193-.413-.195-.053-.001-14.51.032-14.563.03z" display="block" color="#000" fill="url(#t)" fill-rule="evenodd"/>
 <path style="marker:none" d="M3.411 2.969c-.176.01-.26.05-.334.225L2.036 5.613c-.13.3.042.381.496.375h1.014z" display="block" color="#000" fill="#2e3436" fill-rule="evenodd"/>
 <path style="marker:none" d="M18.25 2.904c.198.001.257-.002.385.195.017.027 1.27 2.454 1.315 2.543.153.342-.138.335-.6.345l-1.23-.008z" display="block" color="#000" fill="url(#u)" fill-rule="evenodd"/>
</svg>
