<?xml version="1.0" encoding="UTF-8" standalone="no"?>
<svg
   xmlns:dc="http://purl.org/dc/elements/1.1/"
   xmlns:cc="http://creativecommons.org/ns#"
   xmlns:rdf="http://www.w3.org/1999/02/22-rdf-syntax-ns#"
   xmlns:svg="http://www.w3.org/2000/svg"
   xmlns="http://www.w3.org/2000/svg"
   xmlns:xlink="http://www.w3.org/1999/xlink"
   xmlns:sodipodi="http://sodipodi.sourceforge.net/DTD/sodipodi-0.dtd"
   xmlns:inkscape="http://www.inkscape.org/namespaces/inkscape"
   width="22"
   height="22"
   version="1.1"
   id="svg32"
   sodipodi:docname="sign_problem.svg"
   inkscape:version="0.92.3 (2405546, 2018-03-11)">
  <metadata
     id="metadata36">
    <rdf:RDF>
      <cc:Work
         rdf:about="">
        <dc:format>image/svg+xml</dc:format>
        <dc:type
           rdf:resource="http://purl.org/dc/dcmitype/StillImage" />
        <dc:title></dc:title>
      </cc:Work>
    </rdf:RDF>
  </metadata>
  <sodipodi:namedview
     pagecolor="#ffffff"
     bordercolor="#666666"
     borderopacity="1"
     objecttolerance="10"
     gridtolerance="10"
     guidetolerance="10"
     inkscape:pageopacity="0"
     inkscape:pageshadow="2"
     inkscape:window-width="1720"
     inkscape:window-height="1377"
     id="namedview34"
     showgrid="true"
     inkscape:zoom="29.700922"
     inkscape:cx="13.763745"
     inkscape:cy="10.779996"
     inkscape:window-x="-8"
     inkscape:window-y="-8"
     inkscape:window-maximized="1"
     inkscape:current-layer="svg32"
     inkscape:snap-grids="false"
     inkscape:snap-to-guides="false">
    <inkscape:grid
       type="xygrid"
       id="grid4559" />
  </sodipodi:namedview>
  <defs
     id="defs20">
    <linearGradient
       id="c">
      <stop
         offset="0"
         stop-color="#fffeff"
         stop-opacity=".333"
         id="stop2" />
      <stop
         offset="1"
         stop-color="#fffeff"
         stop-opacity=".216"
         id="stop4" />
    </linearGradient>
    <linearGradient
       id="b">
      <stop
         offset="0"
         stop-color="#ffe69b"
         id="stop7" />
      <stop
         offset="1"
         stop-color="#fff"
         id="stop9" />
    </linearGradient>
    <linearGradient
       id="a">
      <stop
         offset="0"
         id="stop12" />
      <stop
         offset="1"
         stop-opacity="0"
         id="stop14" />
    </linearGradient>
    <radialGradient
       xlink:href="#a"
       id="d"
       gradientUnits="userSpaceOnUse"
       gradientTransform="matrix(0.50110164,0,0,0.12287066,-0.65188283,14.978514)"
       cx="23.857"
       cy="40"
       fx="23.857"
       fy="40"
       r="17.143" />
    <linearGradient
       xlink:href="#b"
       id="e"
       gradientUnits="userSpaceOnUse"
       x1="43.936001"
       y1="53.835999"
       x2="20.065001"
       y2="-8.5629997"
       gradientTransform="matrix(0.36621839,0,0,0.36621839,1.4100915,0.50800821)" />
    <linearGradient
       xlink:href="#c"
       id="f"
       gradientUnits="userSpaceOnUse"
       x1="21.993999"
       y1="33.955002"
       x2="20.917"
       y2="15.815"
       gradientTransform="matrix(0.45147904,0,0,0.41609986,0.17656658,1.1179024)" />
  </defs>
  <path
     d="m 19.893284,19.89334 a 8.5903856,2.1062488 0 1 1 -17.1807704,0 8.5903856,2.1062488 0 1 1 17.1807704,0 z"
     style="color:#000000;display:block;overflow:visible;opacity:0.6;fill:url(#d);stroke-width:0.35091504;marker:none"
     display="block"
     overflow="visible"
     id="path22"
     inkscape:connector-curvature="0" />
  <path
     d="m 20.526548,10.98504 a 9.5132743,9.5132743 0 1 1 -19.0265478,0 9.5132743,9.5132743 0 1 1 19.0265478,0 z"
     id="path24"
     style="fill:#ef2929;stroke:#a40000;stroke-width:1;stroke-opacity:0.9729996"
     inkscape:connector-curvature="0" />
  <path
     d="m 11,15.936203 c -0.805563,0 -1.4257677,-0.620204 -1.4257677,-1.425768 0,-0.868286 0.5579497,-1.425768 1.4257677,-1.425768 0.867818,0 1.363981,0.557014 1.425768,1.425768 0,0.805564 -0.55795,1.425768 -1.425768,1.425768 z M 10.132182,12.278636 9.7600596,5.1488613 H 12.23994 l -0.372122,7.1297747 h -1.797422 z"
     id="path26"
     inkscape:connector-curvature="0"
     style="fill:#ffffff;stroke-width:0.4680787" />
  <path
     d="m 19.5,10.999078 a 8.5,8.5000041 0 1 1 -16.9999999,0 8.5,8.5000041 0 1 1 16.9999999,0 z"
     id="path28"
     inkscape:connector-curvature="0"
     style="opacity:0.347;fill:none;stroke:#ffffff;stroke-width:1;stroke-opacity:1" />
  <path
     d="m 19.757213,10.153511 c 0,4.506777 -4.674615,-2.6072819 -8.43092,0.16103 -3.6687187,2.703402 -9.2991138,5.072258 -9.2991138,0.565897 0,-4.6120515 3.9256102,-8.8908064 8.8155798,-8.8908064 4.889517,0 8.914905,3.6575177 8.914905,8.1638794 z"
     id="path30"
     inkscape:connector-curvature="0"
     style="fill:url(#f);stroke-width:0.46948293" />
</svg>
